<svg xmlns="http://www.w3.org/2000/svg" xmlns:xlink="http://www.w3.org/1999/xlink" width="600" height="400" viewBox="0 0 2400 1600">
<defs>
  <clipPath id="clip550">
    <rect x="0" y="0" width="2400" height="1600"></rect>
  </clipPath>
</defs>
<path clip-path="url(#clip550)" d="
M0 1600 L2400 1600 L2400 0 L0 0  Z
  " fill="#ffffff" fill-rule="evenodd" fill-opacity="1"></path>
<defs>
  <clipPath id="clip551">
    <rect x="480" y="0" width="1681" height="1600"></rect>
  </clipPath>
</defs>
<path clip-path="url(#clip550)" d="
M186.274 1486.45 L2352.76 1486.45 L2352.76 47.2441 L186.274 47.2441  Z
  " fill="#ffffff" fill-rule="evenodd" fill-opacity="1"></path>
<defs>
  <clipPath id="clip552">
    <rect x="186" y="47" width="2167" height="1440"></rect>
  </clipPath>
</defs>
<polyline clip-path="url(#clip552)" style="stroke:#000000; stroke-linecap:butt; stroke-linejoin:round; stroke-width:2; stroke-opacity:0.1; fill:none" points="
  247.59,1486.45 247.59,47.2441 
  "></polyline>
<polyline clip-path="url(#clip552)" style="stroke:#000000; stroke-linecap:butt; stroke-linejoin:round; stroke-width:2; stroke-opacity:0.1; fill:none" points="
  758.552,1486.45 758.552,47.2441 
  "></polyline>
<polyline clip-path="url(#clip552)" style="stroke:#000000; stroke-linecap:butt; stroke-linejoin:round; stroke-width:2; stroke-opacity:0.1; fill:none" points="
  1269.51,1486.45 1269.51,47.2441 
  "></polyline>
<polyline clip-path="url(#clip552)" style="stroke:#000000; stroke-linecap:butt; stroke-linejoin:round; stroke-width:2; stroke-opacity:0.1; fill:none" points="
  1780.48,1486.45 1780.48,47.2441 
  "></polyline>
<polyline clip-path="url(#clip552)" style="stroke:#000000; stroke-linecap:butt; stroke-linejoin:round; stroke-width:2; stroke-opacity:0.1; fill:none" points="
  2291.44,1486.45 2291.44,47.2441 
  "></polyline>
<polyline clip-path="url(#clip550)" style="stroke:#000000; stroke-linecap:butt; stroke-linejoin:round; stroke-width:4; stroke-opacity:1; fill:none" points="
  186.274,1486.45 2352.76,1486.45 
  "></polyline>
<polyline clip-path="url(#clip550)" style="stroke:#000000; stroke-linecap:butt; stroke-linejoin:round; stroke-width:4; stroke-opacity:1; fill:none" points="
  247.59,1486.45 247.59,1467.55 
  "></polyline>
<polyline clip-path="url(#clip550)" style="stroke:#000000; stroke-linecap:butt; stroke-linejoin:round; stroke-width:4; stroke-opacity:1; fill:none" points="
  758.552,1486.45 758.552,1467.55 
  "></polyline>
<polyline clip-path="url(#clip550)" style="stroke:#000000; stroke-linecap:butt; stroke-linejoin:round; stroke-width:4; stroke-opacity:1; fill:none" points="
  1269.51,1486.45 1269.51,1467.55 
  "></polyline>
<polyline clip-path="url(#clip550)" style="stroke:#000000; stroke-linecap:butt; stroke-linejoin:round; stroke-width:4; stroke-opacity:1; fill:none" points="
  1780.48,1486.45 1780.48,1467.55 
  "></polyline>
<polyline clip-path="url(#clip550)" style="stroke:#000000; stroke-linecap:butt; stroke-linejoin:round; stroke-width:4; stroke-opacity:1; fill:none" points="
  2291.44,1486.45 2291.44,1467.55 
  "></polyline>
<path clip-path="url(#clip550)" d="M247.59 1517.37 Q243.978 1517.37 242.15 1520.93 Q240.344 1524.47 240.344 1531.6 Q240.344 1538.71 242.15 1542.27 Q243.978 1545.82 247.59 1545.82 Q251.224 1545.82 253.029 1542.27 Q254.858 1538.71 254.858 1531.6 Q254.858 1524.47 253.029 1520.93 Q251.224 1517.37 247.59 1517.37 M247.59 1513.66 Q253.4 1513.66 256.455 1518.27 Q259.534 1522.85 259.534 1531.6 Q259.534 1540.33 256.455 1544.94 Q253.4 1549.52 247.59 1549.52 Q241.779 1549.52 238.701 1544.94 Q235.645 1540.33 235.645 1531.6 Q235.645 1522.85 238.701 1518.27 Q241.779 1513.66 247.59 1513.66 Z" fill="#000000" fill-rule="evenodd" fill-opacity="1"></path><path clip-path="url(#clip550)" d="M748.83 1514.29 L767.186 1514.29 L767.186 1518.22 L753.112 1518.22 L753.112 1526.7 Q754.131 1526.35 755.149 1526.19 Q756.168 1526 757.187 1526 Q762.974 1526 766.353 1529.17 Q769.733 1532.34 769.733 1537.76 Q769.733 1543.34 766.261 1546.44 Q762.788 1549.52 756.469 1549.52 Q754.293 1549.52 752.024 1549.15 Q749.779 1548.78 747.372 1548.04 L747.372 1543.34 Q749.455 1544.47 751.677 1545.03 Q753.899 1545.58 756.376 1545.58 Q760.381 1545.58 762.719 1543.48 Q765.057 1541.37 765.057 1537.76 Q765.057 1534.15 762.719 1532.04 Q760.381 1529.94 756.376 1529.94 Q754.501 1529.94 752.626 1530.35 Q750.775 1530.77 748.83 1531.65 L748.83 1514.29 Z" fill="#000000" fill-rule="evenodd" fill-opacity="1"></path><path clip-path="url(#clip550)" d="M1244.2 1544.91 L1251.84 1544.91 L1251.84 1518.55 L1243.53 1520.21 L1243.53 1515.95 L1251.8 1514.29 L1256.47 1514.29 L1256.47 1544.91 L1264.11 1544.91 L1264.11 1548.85 L1244.2 1548.85 L1244.2 1544.91 Z" fill="#000000" fill-rule="evenodd" fill-opacity="1"></path><path clip-path="url(#clip550)" d="M1283.55 1517.37 Q1279.94 1517.37 1278.11 1520.93 Q1276.31 1524.47 1276.31 1531.6 Q1276.31 1538.71 1278.11 1542.27 Q1279.94 1545.82 1283.55 1545.82 Q1287.19 1545.82 1288.99 1542.27 Q1290.82 1538.71 1290.82 1531.6 Q1290.82 1524.47 1288.99 1520.93 Q1287.19 1517.37 1283.55 1517.37 M1283.55 1513.66 Q1289.36 1513.66 1292.42 1518.27 Q1295.5 1522.85 1295.5 1531.6 Q1295.5 1540.33 1292.42 1544.94 Q1289.36 1549.52 1283.55 1549.52 Q1277.74 1549.52 1274.67 1544.94 Q1271.61 1540.33 1271.61 1531.6 Q1271.61 1522.85 1274.67 1518.27 Q1277.74 1513.66 1283.55 1513.66 Z" fill="#000000" fill-rule="evenodd" fill-opacity="1"></path><path clip-path="url(#clip550)" d="M1755.66 1544.91 L1763.3 1544.91 L1763.3 1518.55 L1754.99 1520.21 L1754.99 1515.95 L1763.26 1514.29 L1767.93 1514.29 L1767.93 1544.91 L1775.57 1544.91 L1775.57 1548.85 L1755.66 1548.85 L1755.66 1544.91 Z" fill="#000000" fill-rule="evenodd" fill-opacity="1"></path><path clip-path="url(#clip550)" d="M1785.06 1514.29 L1803.42 1514.29 L1803.42 1518.22 L1789.34 1518.22 L1789.34 1526.7 Q1790.36 1526.35 1791.38 1526.19 Q1792.4 1526 1793.42 1526 Q1799.2 1526 1802.58 1529.17 Q1805.96 1532.34 1805.96 1537.76 Q1805.96 1543.34 1802.49 1546.44 Q1799.02 1549.52 1792.7 1549.52 Q1790.52 1549.52 1788.26 1549.15 Q1786.01 1548.78 1783.6 1548.04 L1783.6 1543.34 Q1785.69 1544.47 1787.91 1545.03 Q1790.13 1545.58 1792.61 1545.58 Q1796.61 1545.58 1798.95 1543.48 Q1801.29 1541.37 1801.29 1537.76 Q1801.29 1534.15 1798.95 1532.04 Q1796.61 1529.94 1792.61 1529.94 Q1790.73 1529.94 1788.86 1530.35 Q1787.01 1530.77 1785.06 1531.65 L1785.06 1514.29 Z" fill="#000000" fill-rule="evenodd" fill-opacity="1"></path><path clip-path="url(#clip550)" d="M2270.21 1544.91 L2286.53 1544.91 L2286.53 1548.85 L2264.59 1548.85 L2264.59 1544.91 Q2267.25 1542.16 2271.83 1537.53 Q2276.44 1532.88 2277.62 1531.53 Q2279.87 1529.01 2280.75 1527.27 Q2281.65 1525.51 2281.65 1523.82 Q2281.65 1521.07 2279.7 1519.33 Q2277.78 1517.6 2274.68 1517.6 Q2272.48 1517.6 2270.03 1518.36 Q2267.6 1519.13 2264.82 1520.68 L2264.82 1515.95 Q2267.64 1514.82 2270.1 1514.24 Q2272.55 1513.66 2274.59 1513.66 Q2279.96 1513.66 2283.15 1516.35 Q2286.35 1519.03 2286.35 1523.52 Q2286.35 1525.65 2285.54 1527.57 Q2284.75 1529.47 2282.64 1532.07 Q2282.07 1532.74 2278.96 1535.95 Q2275.86 1539.15 2270.21 1544.91 Z" fill="#000000" fill-rule="evenodd" fill-opacity="1"></path><path clip-path="url(#clip550)" d="M2306.35 1517.37 Q2302.74 1517.37 2300.91 1520.93 Q2299.1 1524.47 2299.1 1531.6 Q2299.1 1538.71 2300.91 1542.27 Q2302.74 1545.82 2306.35 1545.82 Q2309.98 1545.82 2311.79 1542.27 Q2313.62 1538.71 2313.62 1531.6 Q2313.62 1524.47 2311.79 1520.93 Q2309.98 1517.37 2306.35 1517.37 M2306.35 1513.66 Q2312.16 1513.66 2315.21 1518.27 Q2318.29 1522.85 2318.29 1531.6 Q2318.29 1540.33 2315.21 1544.94 Q2312.16 1549.52 2306.35 1549.52 Q2300.54 1549.52 2297.46 1544.94 Q2294.4 1540.33 2294.4 1531.6 Q2294.4 1522.85 2297.46 1518.27 Q2300.54 1513.66 2306.35 1513.66 Z" fill="#000000" fill-rule="evenodd" fill-opacity="1"></path><polyline clip-path="url(#clip552)" style="stroke:#000000; stroke-linecap:butt; stroke-linejoin:round; stroke-width:2; stroke-opacity:0.1; fill:none" points="
  186.274,1445.72 2352.76,1445.72 
  "></polyline>
<polyline clip-path="url(#clip552)" style="stroke:#000000; stroke-linecap:butt; stroke-linejoin:round; stroke-width:2; stroke-opacity:0.1; fill:none" points="
  186.274,1106.28 2352.76,1106.28 
  "></polyline>
<polyline clip-path="url(#clip552)" style="stroke:#000000; stroke-linecap:butt; stroke-linejoin:round; stroke-width:2; stroke-opacity:0.1; fill:none" points="
  186.274,766.846 2352.76,766.846 
  "></polyline>
<polyline clip-path="url(#clip552)" style="stroke:#000000; stroke-linecap:butt; stroke-linejoin:round; stroke-width:2; stroke-opacity:0.1; fill:none" points="
  186.274,427.411 2352.76,427.411 
  "></polyline>
<polyline clip-path="url(#clip552)" style="stroke:#000000; stroke-linecap:butt; stroke-linejoin:round; stroke-width:2; stroke-opacity:0.1; fill:none" points="
  186.274,87.9763 2352.76,87.9763 
  "></polyline>
<polyline clip-path="url(#clip550)" style="stroke:#000000; stroke-linecap:butt; stroke-linejoin:round; stroke-width:4; stroke-opacity:1; fill:none" points="
  186.274,1486.45 186.274,47.2441 
  "></polyline>
<polyline clip-path="url(#clip550)" style="stroke:#000000; stroke-linecap:butt; stroke-linejoin:round; stroke-width:4; stroke-opacity:1; fill:none" points="
  186.274,1445.72 205.172,1445.72 
  "></polyline>
<polyline clip-path="url(#clip550)" style="stroke:#000000; stroke-linecap:butt; stroke-linejoin:round; stroke-width:4; stroke-opacity:1; fill:none" points="
  186.274,1106.28 205.172,1106.28 
  "></polyline>
<polyline clip-path="url(#clip550)" style="stroke:#000000; stroke-linecap:butt; stroke-linejoin:round; stroke-width:4; stroke-opacity:1; fill:none" points="
  186.274,766.846 205.172,766.846 
  "></polyline>
<polyline clip-path="url(#clip550)" style="stroke:#000000; stroke-linecap:butt; stroke-linejoin:round; stroke-width:4; stroke-opacity:1; fill:none" points="
  186.274,427.411 205.172,427.411 
  "></polyline>
<polyline clip-path="url(#clip550)" style="stroke:#000000; stroke-linecap:butt; stroke-linejoin:round; stroke-width:4; stroke-opacity:1; fill:none" points="
  186.274,87.9763 205.172,87.9763 
  "></polyline>
<path clip-path="url(#clip550)" d="M62.9365 1431.51 Q59.3254 1431.51 57.4967 1435.08 Q55.6912 1438.62 55.6912 1445.75 Q55.6912 1452.86 57.4967 1456.42 Q59.3254 1459.96 62.9365 1459.96 Q66.5707 1459.96 68.3763 1456.42 Q70.205 1452.86 70.205 1445.75 Q70.205 1438.62 68.3763 1435.08 Q66.5707 1431.51 62.9365 1431.51 M62.9365 1427.81 Q68.7467 1427.81 71.8022 1432.42 Q74.8809 1437 74.8809 1445.75 Q74.8809 1454.48 71.8022 1459.08 Q68.7467 1463.67 62.9365 1463.67 Q57.1264 1463.67 54.0477 1459.08 Q50.9921 1454.48 50.9921 1445.75 Q50.9921 1437 54.0477 1432.42 Q57.1264 1427.81 62.9365 1427.81 Z" fill="#000000" fill-rule="evenodd" fill-opacity="1"></path><path clip-path="url(#clip550)" d="M83.0984 1457.12 L87.9827 1457.12 L87.9827 1463 L83.0984 1463 L83.0984 1457.12 Z" fill="#000000" fill-rule="evenodd" fill-opacity="1"></path><path clip-path="url(#clip550)" d="M108.168 1431.51 Q104.557 1431.51 102.728 1435.08 Q100.922 1438.62 100.922 1445.75 Q100.922 1452.86 102.728 1456.42 Q104.557 1459.96 108.168 1459.96 Q111.802 1459.96 113.608 1456.42 Q115.436 1452.86 115.436 1445.75 Q115.436 1438.62 113.608 1435.08 Q111.802 1431.51 108.168 1431.51 M108.168 1427.81 Q113.978 1427.81 117.033 1432.42 Q120.112 1437 120.112 1445.75 Q120.112 1454.48 117.033 1459.08 Q113.978 1463.67 108.168 1463.67 Q102.358 1463.67 99.2789 1459.08 Q96.2234 1454.48 96.2234 1445.75 Q96.2234 1437 99.2789 1432.42 Q102.358 1427.81 108.168 1427.81 Z" fill="#000000" fill-rule="evenodd" fill-opacity="1"></path><path clip-path="url(#clip550)" d="M138.33 1431.51 Q134.719 1431.51 132.89 1435.08 Q131.084 1438.62 131.084 1445.75 Q131.084 1452.86 132.89 1456.42 Q134.719 1459.96 138.33 1459.96 Q141.964 1459.96 143.769 1456.42 Q145.598 1452.86 145.598 1445.75 Q145.598 1438.62 143.769 1435.08 Q141.964 1431.51 138.33 1431.51 M138.33 1427.81 Q144.14 1427.81 147.195 1432.42 Q150.274 1437 150.274 1445.75 Q150.274 1454.48 147.195 1459.08 Q144.14 1463.67 138.33 1463.67 Q132.519 1463.67 129.441 1459.08 Q126.385 1454.48 126.385 1445.75 Q126.385 1437 129.441 1432.42 Q132.519 1427.81 138.33 1427.81 Z" fill="#000000" fill-rule="evenodd" fill-opacity="1"></path><path clip-path="url(#clip550)" d="M63.9319 1092.08 Q60.3208 1092.08 58.4921 1095.64 Q56.6865 1099.19 56.6865 1106.32 Q56.6865 1113.42 58.4921 1116.99 Q60.3208 1120.53 63.9319 1120.53 Q67.5661 1120.53 69.3717 1116.99 Q71.2004 1113.42 71.2004 1106.32 Q71.2004 1099.19 69.3717 1095.64 Q67.5661 1092.08 63.9319 1092.08 M63.9319 1088.38 Q69.742 1088.38 72.7976 1092.98 Q75.8763 1097.57 75.8763 1106.32 Q75.8763 1115.04 72.7976 1119.65 Q69.742 1124.23 63.9319 1124.23 Q58.1217 1124.23 55.043 1119.65 Q51.9875 1115.04 51.9875 1106.32 Q51.9875 1097.57 55.043 1092.98 Q58.1217 1088.38 63.9319 1088.38 Z" fill="#000000" fill-rule="evenodd" fill-opacity="1"></path><path clip-path="url(#clip550)" d="M84.0938 1117.68 L88.978 1117.68 L88.978 1123.56 L84.0938 1123.56 L84.0938 1117.68 Z" fill="#000000" fill-rule="evenodd" fill-opacity="1"></path><path clip-path="url(#clip550)" d="M103.191 1119.63 L119.51 1119.63 L119.51 1123.56 L97.566 1123.56 L97.566 1119.63 Q100.228 1116.87 104.811 1112.24 Q109.418 1107.59 110.598 1106.25 Q112.844 1103.72 113.723 1101.99 Q114.626 1100.23 114.626 1098.54 Q114.626 1095.78 112.682 1094.05 Q110.76 1092.31 107.658 1092.31 Q105.459 1092.31 103.006 1093.07 Q100.575 1093.84 97.7974 1095.39 L97.7974 1090.67 Q100.621 1089.53 103.075 1088.95 Q105.529 1088.38 107.566 1088.38 Q112.936 1088.38 116.131 1091.06 Q119.325 1093.75 119.325 1098.24 Q119.325 1100.37 118.515 1102.29 Q117.728 1104.19 115.621 1106.78 Q115.043 1107.45 111.941 1110.67 Q108.839 1113.86 103.191 1119.63 Z" fill="#000000" fill-rule="evenodd" fill-opacity="1"></path><path clip-path="url(#clip550)" d="M129.371 1089 L147.728 1089 L147.728 1092.94 L133.654 1092.94 L133.654 1101.41 Q134.672 1101.06 135.691 1100.9 Q136.709 1100.71 137.728 1100.71 Q143.515 1100.71 146.894 1103.89 Q150.274 1107.06 150.274 1112.47 Q150.274 1118.05 146.802 1121.15 Q143.33 1124.23 137.01 1124.23 Q134.834 1124.23 132.566 1123.86 Q130.32 1123.49 127.913 1122.75 L127.913 1118.05 Q129.996 1119.19 132.219 1119.74 Q134.441 1120.3 136.918 1120.3 Q140.922 1120.3 143.26 1118.19 Q145.598 1116.08 145.598 1112.47 Q145.598 1108.86 143.26 1106.76 Q140.922 1104.65 136.918 1104.65 Q135.043 1104.65 133.168 1105.07 Q131.316 1105.48 129.371 1106.36 L129.371 1089 Z" fill="#000000" fill-rule="evenodd" fill-opacity="1"></path><path clip-path="url(#clip550)" d="M62.9365 752.645 Q59.3254 752.645 57.4967 756.209 Q55.6912 759.751 55.6912 766.881 Q55.6912 773.987 57.4967 777.552 Q59.3254 781.094 62.9365 781.094 Q66.5707 781.094 68.3763 777.552 Q70.205 773.987 70.205 766.881 Q70.205 759.751 68.3763 756.209 Q66.5707 752.645 62.9365 752.645 M62.9365 748.941 Q68.7467 748.941 71.8022 753.547 Q74.8809 758.131 74.8809 766.881 Q74.8809 775.608 71.8022 780.214 Q68.7467 784.797 62.9365 784.797 Q57.1264 784.797 54.0477 780.214 Q50.9921 775.608 50.9921 766.881 Q50.9921 758.131 54.0477 753.547 Q57.1264 748.941 62.9365 748.941 Z" fill="#000000" fill-rule="evenodd" fill-opacity="1"></path><path clip-path="url(#clip550)" d="M83.0984 778.246 L87.9827 778.246 L87.9827 784.126 L83.0984 784.126 L83.0984 778.246 Z" fill="#000000" fill-rule="evenodd" fill-opacity="1"></path><path clip-path="url(#clip550)" d="M98.2141 749.566 L116.57 749.566 L116.57 753.501 L102.496 753.501 L102.496 761.973 Q103.515 761.626 104.534 761.464 Q105.552 761.279 106.571 761.279 Q112.358 761.279 115.737 764.45 Q119.117 767.621 119.117 773.038 Q119.117 778.617 115.645 781.719 Q112.172 784.797 105.853 784.797 Q103.677 784.797 101.409 784.427 Q99.1632 784.057 96.7558 783.316 L96.7558 778.617 Q98.8391 779.751 101.061 780.307 Q103.284 780.862 105.76 780.862 Q109.765 780.862 112.103 778.756 Q114.441 776.649 114.441 773.038 Q114.441 769.427 112.103 767.321 Q109.765 765.214 105.76 765.214 Q103.885 765.214 102.01 765.631 Q100.159 766.047 98.2141 766.927 L98.2141 749.566 Z" fill="#000000" fill-rule="evenodd" fill-opacity="1"></path><path clip-path="url(#clip550)" d="M138.33 752.645 Q134.719 752.645 132.89 756.209 Q131.084 759.751 131.084 766.881 Q131.084 773.987 132.89 777.552 Q134.719 781.094 138.33 781.094 Q141.964 781.094 143.769 777.552 Q145.598 773.987 145.598 766.881 Q145.598 759.751 143.769 756.209 Q141.964 752.645 138.33 752.645 M138.33 748.941 Q144.14 748.941 147.195 753.547 Q150.274 758.131 150.274 766.881 Q150.274 775.608 147.195 780.214 Q144.14 784.797 138.33 784.797 Q132.519 784.797 129.441 780.214 Q126.385 775.608 126.385 766.881 Q126.385 758.131 129.441 753.547 Q132.519 748.941 138.33 748.941 Z" fill="#000000" fill-rule="evenodd" fill-opacity="1"></path><path clip-path="url(#clip550)" d="M63.9319 413.21 Q60.3208 413.21 58.4921 416.775 Q56.6865 420.316 56.6865 427.446 Q56.6865 434.552 58.4921 438.117 Q60.3208 441.659 63.9319 441.659 Q67.5661 441.659 69.3717 438.117 Q71.2004 434.552 71.2004 427.446 Q71.2004 420.316 69.3717 416.775 Q67.5661 413.21 63.9319 413.21 M63.9319 409.506 Q69.742 409.506 72.7976 414.113 Q75.8763 418.696 75.8763 427.446 Q75.8763 436.173 72.7976 440.779 Q69.742 445.362 63.9319 445.362 Q58.1217 445.362 55.043 440.779 Q51.9875 436.173 51.9875 427.446 Q51.9875 418.696 55.043 414.113 Q58.1217 409.506 63.9319 409.506 Z" fill="#000000" fill-rule="evenodd" fill-opacity="1"></path><path clip-path="url(#clip550)" d="M84.0938 438.812 L88.978 438.812 L88.978 444.691 L84.0938 444.691 L84.0938 438.812 Z" fill="#000000" fill-rule="evenodd" fill-opacity="1"></path><path clip-path="url(#clip550)" d="M97.9826 410.131 L120.205 410.131 L120.205 412.122 L107.658 444.691 L102.774 444.691 L114.58 414.066 L97.9826 414.066 L97.9826 410.131 Z" fill="#000000" fill-rule="evenodd" fill-opacity="1"></path><path clip-path="url(#clip550)" d="M129.371 410.131 L147.728 410.131 L147.728 414.066 L133.654 414.066 L133.654 422.538 Q134.672 422.191 135.691 422.029 Q136.709 421.844 137.728 421.844 Q143.515 421.844 146.894 425.015 Q150.274 428.187 150.274 433.603 Q150.274 439.182 146.802 442.284 Q143.33 445.362 137.01 445.362 Q134.834 445.362 132.566 444.992 Q130.32 444.622 127.913 443.881 L127.913 439.182 Q129.996 440.316 132.219 440.872 Q134.441 441.427 136.918 441.427 Q140.922 441.427 143.26 439.321 Q145.598 437.214 145.598 433.603 Q145.598 429.992 143.26 427.886 Q140.922 425.779 136.918 425.779 Q135.043 425.779 133.168 426.196 Q131.316 426.613 129.371 427.492 L129.371 410.131 Z" fill="#000000" fill-rule="evenodd" fill-opacity="1"></path><path clip-path="url(#clip550)" d="M53.7467 101.321 L61.3856 101.321 L61.3856 74.9555 L53.0754 76.6222 L53.0754 72.3629 L61.3393 70.6963 L66.0152 70.6963 L66.0152 101.321 L73.654 101.321 L73.654 105.256 L53.7467 105.256 L53.7467 101.321 Z" fill="#000000" fill-rule="evenodd" fill-opacity="1"></path><path clip-path="url(#clip550)" d="M83.0984 99.3767 L87.9827 99.3767 L87.9827 105.256 L83.0984 105.256 L83.0984 99.3767 Z" fill="#000000" fill-rule="evenodd" fill-opacity="1"></path><path clip-path="url(#clip550)" d="M108.168 73.775 Q104.557 73.775 102.728 77.3398 Q100.922 80.8814 100.922 88.011 Q100.922 95.1174 102.728 98.6822 Q104.557 102.224 108.168 102.224 Q111.802 102.224 113.608 98.6822 Q115.436 95.1174 115.436 88.011 Q115.436 80.8814 113.608 77.3398 Q111.802 73.775 108.168 73.775 M108.168 70.0713 Q113.978 70.0713 117.033 74.6777 Q120.112 79.261 120.112 88.011 Q120.112 96.7378 117.033 101.344 Q113.978 105.928 108.168 105.928 Q102.358 105.928 99.2789 101.344 Q96.2234 96.7378 96.2234 88.011 Q96.2234 79.261 99.2789 74.6777 Q102.358 70.0713 108.168 70.0713 Z" fill="#000000" fill-rule="evenodd" fill-opacity="1"></path><path clip-path="url(#clip550)" d="M138.33 73.775 Q134.719 73.775 132.89 77.3398 Q131.084 80.8814 131.084 88.011 Q131.084 95.1174 132.89 98.6822 Q134.719 102.224 138.33 102.224 Q141.964 102.224 143.769 98.6822 Q145.598 95.1174 145.598 88.011 Q145.598 80.8814 143.769 77.3398 Q141.964 73.775 138.33 73.775 M138.33 70.0713 Q144.14 70.0713 147.195 74.6777 Q150.274 79.261 150.274 88.011 Q150.274 96.7378 147.195 101.344 Q144.14 105.928 138.33 105.928 Q132.519 105.928 129.441 101.344 Q126.385 96.7378 126.385 88.011 Q126.385 79.261 129.441 74.6777 Q132.519 70.0713 138.33 70.0713 Z" fill="#000000" fill-rule="evenodd" fill-opacity="1"></path><polyline clip-path="url(#clip552)" style="stroke:#009af9; stroke-linecap:butt; stroke-linejoin:round; stroke-width:4; stroke-opacity:1; fill:none" points="
  247.59,1445.72 254.243,1445.72 260.896,1445.72 322.415,1445.72 383.935,1445.72 402.42,1445.72 420.905,1445.72 430.148,1445.72 439.391,1445.72 444.012,1445.72 
  448.633,1445.72 449.788,1445.72 450.944,1445.72 451.521,1445.72 452.099,1432.14 452.677,1432.14 453.254,1432.14 454.41,1432.14 455.565,1432.14 456.72,1432.14 
  457.876,1432.14 473.505,1432.14 489.134,1432.14 504.763,1432.14 520.392,1432.14 537.37,1432.14 554.347,1432.14 558.591,1432.14 562.836,1432.14 567.08,1432.14 
  571.325,1432.14 571.855,1432.14 572.386,1432.14 572.916,1432.14 573.447,1432.14 573.977,1418.56 574.508,1418.56 575.038,1418.56 575.569,1418.56 577.691,1418.56 
  579.813,1418.56 584.058,1418.56 588.302,1418.56 603.954,1418.56 619.606,1418.56 623.519,1418.56 627.432,1418.56 628.41,1418.56 629.388,1418.56 629.877,1418.56 
  630.366,1418.56 630.855,1418.56 631.345,1404.98 631.834,1404.98 632.323,1404.98 632.812,1404.98 633.301,1404.98 633.79,1391.41 634.279,1391.41 634.768,1391.41 
  635.258,1391.41 636.236,1391.41 637.214,1391.41 637.703,1391.41 638.192,1391.41 638.681,1391.41 639.17,1391.41 639.66,1377.83 640.149,1377.83 640.638,1377.83 
  641.127,1377.83 642.105,1377.83 643.083,1377.83 646.996,1377.83 650.909,1377.83 653.007,1377.83 655.104,1377.83 656.153,1377.83 657.202,1377.83 657.726,1377.83 
  658.251,1364.25 658.775,1364.25 659.299,1364.25 661.397,1364.25 663.495,1364.25 664.019,1364.25 664.543,1364.25 665.068,1364.25 665.592,1364.25 666.117,1350.67 
  666.641,1350.67 667.165,1350.67 667.69,1350.67 668.738,1350.67 669.787,1350.67 670.836,1350.67 671.885,1350.67 672.409,1350.67 672.934,1350.67 673.458,1350.67 
  673.982,1350.67 674.507,1337.1 675.031,1337.1 675.555,1337.1 676.08,1337.1 678.177,1337.1 680.275,1337.1 682.372,1337.1 684.47,1337.1 686.568,1337.1 
  688.665,1337.1 689.714,1337.1 690.763,1337.1 691.287,1337.1 691.811,1337.1 692.336,1337.1 692.86,1323.52 693.385,1323.52 693.909,1323.52 694.433,1323.52 
  694.958,1323.52 696.007,1323.52 697.055,1323.52 698.104,1323.52 699.153,1323.52 699.677,1323.52 700.202,1323.52 700.726,1323.52 701.25,1309.94 701.775,1309.94 
  702.299,1309.94 702.824,1309.94 703.348,1309.94 704.397,1309.94 705.446,1309.94 707.543,1309.94 709.641,1309.94 713.836,1309.94 718.031,1309.94 718.638,1309.94 
  719.246,1309.94 719.853,1296.36 720.461,1296.36 721.069,1296.36 721.676,1296.36 722.284,1296.36 722.891,1296.36 724.106,1296.36 725.321,1296.36 725.929,1296.36 
  726.537,1296.36 727.144,1296.36 727.752,1282.79 728.359,1282.79 728.967,1282.79 729.574,1282.79 730.182,1282.79 731.397,1282.79 732.612,1282.79 733.827,1282.79 
  735.042,1282.79 735.65,1282.79 736.257,1269.21 736.865,1269.21 737.472,1269.21 738.688,1269.21 739.903,1269.21 740.51,1269.21 741.118,1269.21 741.725,1269.21 
  742.333,1255.63 742.94,1255.63 743.548,1255.63 744.156,1242.05 744.763,1242.05 745.978,1242.05 747.193,1242.05 747.801,1242.05 748.408,1242.05 749.016,1242.05 
  749.624,1242.05 750.231,1228.48 750.839,1228.48 751.446,1228.48 752.054,1228.48 754.484,1228.48 756.914,1228.48 759.344,1228.48 761.775,1228.48 762.99,1228.48 
  764.205,1228.48 764.812,1228.48 765.42,1228.48 766.027,1228.48 766.635,1214.9 767.243,1214.9 767.85,1214.9 768.458,1214.9 769.065,1201.32 769.673,1201.32 
  770.28,1201.32 770.888,1201.32 771.495,1201.32 773.926,1201.32 776.356,1201.32 778.786,1201.32 781.216,1201.32 782.431,1201.32 783.647,1201.32 784.254,1201.32 
  784.862,1187.75 785.469,1187.75 786.077,1187.75 787.292,1187.75 788.507,1187.75 789.115,1187.75 789.722,1187.75 790.33,1187.75 790.937,1174.17 791.545,1174.17 
  792.152,1174.17 792.76,1174.17 793.367,1160.59 793.975,1160.59 794.582,1160.59 795.19,1160.59 795.798,1160.59 796.338,1160.59 796.877,1147.01 797.417,1147.01 
  797.957,1147.01 798.497,1147.01 799.037,1133.44 799.577,1133.44 800.117,1133.44 802.277,1133.44 804.436,1133.44 808.756,1133.44 813.075,1133.44 813.615,1133.44 
  814.155,1133.44 814.695,1133.44 815.235,1133.44 815.775,1119.86 816.315,1119.86 816.855,1119.86 817.394,1119.86 819.554,1119.86 821.714,1119.86 826.033,1119.86 
  830.353,1119.86 834.672,1119.86 838.991,1119.86 840.071,1119.86 841.151,1119.86 842.231,1119.86 843.311,1119.86 843.851,1119.86 844.391,1106.28 844.93,1106.28 
  845.47,1106.28 846.55,1106.28 847.63,1106.28 851.949,1106.28 856.269,1106.28 860.588,1106.28 864.908,1106.28 866.801,1106.28 868.695,1106.28 869.642,1106.28 
  870.589,1106.28 871.536,1106.28 872.483,1106.28 872.956,1106.28 873.43,1092.7 873.903,1092.7 874.377,1092.7 875.324,1092.7 876.271,1092.7 878.165,1092.7 
  880.058,1092.7 883.846,1092.7 887.634,1092.7 891.421,1092.7 895.209,1092.7 898.997,1092.7 902.785,1092.7 904.678,1092.7 906.572,1092.7 907.519,1092.7 
  908.466,1092.7 909.413,1092.7 910.36,1092.7 910.833,1092.7 911.307,1092.7 911.78,1092.7 912.254,1079.13 912.727,1079.13 913.201,1079.13 913.674,1079.13 
  914.148,1079.13 916.042,1079.13 917.935,1079.13 921.723,1079.13 925.511,1079.13 933.77,1079.13 942.029,1079.13 946.159,1079.13 950.288,1079.13 952.353,1079.13 
  954.418,1079.13 956.483,1079.13 958.548,1079.13 959.58,1079.13 960.612,1079.13 961.129,1079.13 961.645,1065.55 962.161,1065.55 962.677,1065.55 963.71,1065.55 
  964.742,1065.55 965.774,1065.55 966.807,1065.55 970.937,1065.55 975.066,1065.55 983.325,1065.55 991.585,1065.55 999.893,1065.55 1008.2,1065.55 1012.36,1065.55 
  1016.51,1065.55 1017.55,1065.55 1018.59,1065.55 1019.63,1065.55 1020.66,1065.55 1021.18,1065.55 1021.7,1051.97 1022.22,1051.97 1022.74,1051.97 1023.78,1051.97 
  1024.82,1051.97 1028.97,1051.97 1033.13,1051.97 1037.28,1051.97 1041.43,1051.97 1049.74,1051.97 1058.05,1051.97 1067.24,1051.97 1076.42,1051.97 1081.02,1051.97 
  1085.61,1051.97 1086.76,1051.97 1087.91,1051.97 1089.05,1051.97 1090.2,1051.97 1090.78,1051.97 1091.35,1051.97 1091.92,1038.39 1092.5,1038.39 1093.07,1038.39 
  1093.65,1038.39 1094.22,1038.39 1094.79,1038.39 1099.39,1038.39 1103.98,1038.39 1108.57,1038.39 1113.17,1038.39 1122.35,1038.39 1131.54,1038.39 1149.02,1038.39 
  1166.5,1038.39 1175.24,1038.39 1183.98,1038.39 1188.35,1038.39 1192.72,1038.39 1194.9,1038.39 1197.09,1038.39 1199.27,1038.39 1201.46,1038.39 1202.03,1038.39 
  1202.6,1038.39 1203.16,1024.82 1203.73,1024.82 1204.3,1024.82 1204.87,1024.82 1205.44,1024.82 1206,1024.82 1208.28,1024.82 1210.55,1024.82 1215.09,1024.82 
  1219.63,1024.82 1228.72,1024.82 1237.81,1024.82 1255.99,1024.82 1274.16,1024.82 1289.46,1024.82 1304.76,1024.82 1312.41,1024.82 1320.06,1024.82 1323.89,1024.82 
  1327.71,1024.82 1329.62,1024.82 1331.54,1024.82 1332.49,1024.82 1333.45,1024.82 1333.93,1024.82 1334.4,1024.82 1334.88,1024.82 1335.36,1011.24 1335.94,1011.24 
  1336.53,1011.24 1337.11,1011.24 1337.7,1011.24 1338.86,1011.24 1340.03,1011.24 1342.37,1011.24 1344.7,1011.24 1349.37,1011.24 1354.04,1011.24 1363.38,1011.24 
  1372.72,1011.24 1391.4,1011.24 1410.08,1011.24 1427.19,1011.24 1444.3,1011.24 1452.86,1011.24 1461.41,1011.24 1465.69,1011.24 1469.97,1011.24 1472.11,1011.24 
  1474.25,1011.24 1474.78,1011.24 1475.32,1011.24 1475.85,1011.24 1476.39,1011.24 1476.92,1011.24 1477.45,997.662 1477.99,997.662 1478.52,997.662 1482.48,997.662 
  1486.43,997.662 1490.38,997.662 1494.33,997.662 1502.23,997.662 1510.13,997.662 1525.94,997.662 1541.74,997.662 1573.76,997.662 1605.77,997.662 1614.75,997.662 
  1623.72,997.662 1625.96,997.662 1628.2,997.662 1628.76,997.662 1629.32,997.662 1629.88,997.662 1630.44,984.084 1631,984.084 1631.57,984.084 1632.13,984.084 
  1632.69,984.084 1637.17,984.084 1641.66,984.084 1642.78,984.084 1643.9,984.084 1644.46,984.084 1645.02,984.084 1645.58,984.084 1646.14,984.084 1646.7,970.507 
  1647.26,970.507 1647.82,970.507 1648.39,970.507 1648.95,956.93 1649.51,956.93 1650.07,956.93 1650.63,956.93 1652.87,956.93 1655.11,956.93 1657.36,956.93 
  1659.6,956.93 1660.16,956.93 1660.72,956.93 1661.28,956.93 1661.84,956.93 1662.4,956.93 1662.96,943.352 1663.52,943.352 1664.08,943.352 1664.64,943.352 
  1665.21,929.775 1665.77,929.775 1666.33,929.775 1667.45,929.775 1668.57,929.775 1669.13,929.775 1669.69,929.775 1670.25,929.775 1670.81,929.775 1671.37,916.197 
  1671.93,916.197 1672.49,916.197 1673.05,916.197 1674.18,916.197 1675.3,916.197 1676.42,916.197 1677.54,916.197 1678.05,916.197 1678.56,916.197 1679.06,902.62 
  1679.57,902.62 1680.59,902.62 1681.6,902.62 1683.64,902.62 1685.67,902.62 1686.18,902.62 1686.68,902.62 1687.19,889.043 1687.7,889.043 1688.72,889.043 
  1689.73,889.043 1690.75,889.043 1691.77,889.043 1692.27,889.043 1692.78,889.043 1693.29,875.465 1693.8,875.465 1694.31,875.465 1694.81,875.465 1695.32,875.465 
  1695.83,861.888 1696.34,861.888 1696.85,861.888 1697.35,861.888 1697.86,861.888 1698.37,861.888 1698.88,861.888 1699.39,848.31 1699.89,848.31 1700.4,848.31 
  1700.91,848.31 1701.42,834.733 1701.93,834.733 1702.94,834.733 1703.96,834.733 1704.97,834.733 1705.99,834.733 1706.5,834.733 1707.01,834.733 1707.52,821.156 
  1708.02,821.156 1708.53,821.156 1709.04,821.156 1709.55,821.156 1710.06,821.156 1711.07,821.156 1712.09,821.156 1712.6,821.156 1713.1,821.156 1713.61,807.578 
  1714.12,807.578 1714.63,807.578 1715.14,807.578 1715.64,794.001 1716.15,794.001 1716.66,794.001 1717.17,794.001 1717.68,794.001 1718.18,794.001 1719.2,794.001 
  1720.22,794.001 1720.72,794.001 1721.23,794.001 1721.74,780.423 1722.25,780.423 1723.26,780.423 1724.28,780.423 1725.3,780.423 1726.31,780.423 1727.33,780.423 
  1728.35,780.423 1728.85,780.423 1729.36,780.423 1729.87,766.846 1730.38,766.846 1731.39,766.846 1732.41,766.846 1733.43,766.846 1734.44,766.846 1738.51,766.846 
  1742.57,766.846 1747.22,753.269 1751.88,739.691 1756.53,726.114 1761.18,712.536 1761.77,712.536 1762.35,712.536 1762.93,698.959 1763.51,698.959 1764.09,698.959 
  1764.67,685.382 1765.26,685.382 1765.84,685.382 1766.42,671.804 1767,671.804 1767.58,671.804 1768.17,658.227 1768.75,644.649 1769.33,644.649 1769.91,644.649 
  1770.49,631.072 1771.07,631.072 1771.66,631.072 1772.24,631.072 1772.82,617.495 1773.4,617.495 1773.98,617.495 1774.56,617.495 1775.15,617.495 1775.73,617.495 
  1776.31,603.917 1776.89,603.917 1777.47,603.917 1778.64,603.917 1779.8,603.917 1780.96,603.917 1782.13,603.917 1782.71,603.917 1783.29,603.917 1783.87,603.917 
  1784.45,603.917 1785.03,590.34 1785.62,590.34 1786.2,590.34 1786.78,590.34 1787.94,590.34 1789.11,590.34 1790.27,590.34 1791.43,590.34 1792.01,590.34 
  1792.6,590.34 1793.18,576.762 1793.76,576.762 1794.34,576.762 1794.92,563.185 1795.5,563.185 1796.09,563.185 1796.67,549.608 1797.25,549.608 1797.83,549.608 
  1798.41,549.608 1798.99,536.03 1799.58,536.03 1800.16,536.03 1800.74,522.453 1801.32,508.875 1801.9,508.875 1802.48,508.875 1803.07,495.298 1803.65,495.298 
  1804.23,495.298 1804.81,495.298 1805.39,495.298 1805.97,495.298 1806.56,481.721 1807.14,481.721 1807.72,481.721 1808.3,481.721 1808.88,468.143 1809.46,468.143 
  1810.05,468.143 1810.63,468.143 1811.21,468.143 1811.79,468.143 1812.37,468.143 1812.96,454.566 1813.54,454.566 1814.12,454.566 1814.7,440.989 1815.28,440.989 
  1815.86,440.989 1816.45,440.989 1817.03,440.989 1817.57,440.989 1818.1,440.989 1818.64,427.411 1819.18,427.411 1819.72,427.411 1820.26,427.411 1820.8,413.834 
  1821.34,413.834 1821.87,413.834 1822.41,413.834 1822.95,413.834 1823.49,413.834 1824.03,413.834 1824.57,413.834 1825.11,413.834 1825.64,413.834 1826.18,413.834 
  1826.72,400.256 1827.26,400.256 1827.8,400.256 1828.88,400.256 1829.95,400.256 1831.03,400.256 1832.11,400.256 1833.18,400.256 1834.26,400.256 1834.8,400.256 
  1835.34,386.679 1835.88,386.679 1836.42,386.679 1837.49,386.679 1838.57,386.679 1839.65,386.679 1840.72,386.679 1841.26,386.679 1841.8,386.679 1842.34,386.679 
  1842.88,386.679 1843.42,373.102 1843.96,373.102 1844.49,373.102 1845.03,373.102 1846.11,373.102 1847.19,373.102 1848.27,373.102 1849.34,373.102 1849.88,373.102 
  1850.42,373.102 1850.96,373.102 1851.5,359.524 1852.04,359.524 1852.57,359.524 1853.11,345.947 1853.65,345.947 1854.19,345.947 1854.73,345.947 1855.27,332.369 
  1855.81,332.369 1856.34,332.369 1856.88,332.369 1857.42,318.792 1857.96,318.792 1858.5,318.792 1859.04,305.215 1859.58,291.637 1860.11,291.637 1860.65,291.637 
  1861.19,278.06 1861.73,278.06 1862.27,278.06 1863.35,278.06 1864.42,278.06 1865.5,278.06 1866.58,278.06 1867.12,278.06 1867.65,264.482 1868.19,264.482 
  1868.73,264.482 1870.89,264.482 1873.04,264.482 1873.58,264.482 1874.12,264.482 1874.66,264.482 1875.19,264.482 1875.73,250.905 1876.27,250.905 1876.81,250.905 
  1877.35,250.905 1878.43,250.905 1879.5,250.905 1880.58,250.905 1881.66,250.905 1882.2,250.905 1882.73,250.905 1883.27,250.905 1883.81,237.328 1884.35,237.328 
  1884.89,237.328 1885.43,237.328 1885.97,237.328 1886.5,237.328 1887.03,237.328 1887.56,223.75 1888.09,223.75 1888.62,223.75 1889.15,223.75 1889.68,210.173 
  1890.21,210.173 1890.75,210.173 1891.28,210.173 1891.81,196.595 1892.34,196.595 1893.4,196.595 1894.46,196.595 1896.59,196.595 1898.71,196.595 1899.77,196.595 
  1900.83,196.595 1901.37,196.595 1901.9,183.018 1902.43,183.018 1902.96,183.018 1903.49,183.018 1904.02,169.441 1904.55,169.441 1905.08,169.441 1905.61,169.441 
  1906.14,155.863 1906.67,155.863 1907.21,155.863 1909.33,155.863 1911.45,155.863 1913.58,155.863 1915.7,155.863 1916.76,155.863 1917.83,155.863 1918.36,155.863 
  1918.89,155.863 1919.42,155.863 1919.95,155.863 1920.48,142.286 1921.01,142.286 1921.54,142.286 1922.07,142.286 1923.14,142.286 1924.2,142.286 1926.32,142.286 
  1928.45,142.286 1930.57,142.286 1932.69,142.286 1933.76,142.286 1934.82,142.286 1935.88,142.286 1936.94,142.286 1937.47,142.286 1938,142.286 1938.53,142.286 
  1939.07,128.708 1939.6,128.708 1940.13,128.708 1940.66,128.708 1941.19,128.708 1942.25,128.708 1943.31,128.708 1944.38,128.708 1945.44,128.708 1945.97,128.708 
  1946.5,128.708 1947.03,115.131 1947.56,115.131 1948.62,115.131 1949.68,115.131 1951.81,115.131 1953.93,115.131 1962.18,115.131 1970.43,115.131 1971.46,115.131 
  1972.49,115.131 1973.52,115.131 1974.55,115.131 1975.07,115.131 1975.59,101.554 1976.1,101.554 1976.62,101.554 1977.65,101.554 1978.68,101.554 1982.8,101.554 
  1986.93,101.554 1991.05,101.554 1995.18,101.554 1997.24,101.554 1999.3,101.554 2001.36,101.554 2003.43,101.554 2003.94,101.554 2004.46,87.9763 2004.97,87.9763 
  2005.49,87.9763 2006.52,87.9763 2007.55,87.9763 2009.61,87.9763 2011.67,87.9763 2015.8,87.9763 2019.92,87.9763 2087.57,87.9763 2161.69,87.9763 2269.35,87.9763 
  2291.44,87.9763 
  "></polyline>
<circle clip-path="url(#clip552)" cx="717.563" cy="1309.94" r="36" fill="#e26f46" fill-rule="evenodd" fill-opacity="1" stroke="#000000" stroke-opacity="1" stroke-width="3.2"></circle>
<circle clip-path="url(#clip552)" cx="792.562" cy="1174.17" r="36" fill="#e26f46" fill-rule="evenodd" fill-opacity="1" stroke="#000000" stroke-opacity="1" stroke-width="3.2"></circle>
<circle clip-path="url(#clip552)" cx="1169.47" cy="1038.39" r="36" fill="#e26f46" fill-rule="evenodd" fill-opacity="1" stroke="#000000" stroke-opacity="1" stroke-width="3.2"></circle>
<circle clip-path="url(#clip552)" cx="1683.91" cy="902.62" r="36" fill="#e26f46" fill-rule="evenodd" fill-opacity="1" stroke="#000000" stroke-opacity="1" stroke-width="3.2"></circle>
<circle clip-path="url(#clip552)" cx="1737.97" cy="766.846" r="36" fill="#e26f46" fill-rule="evenodd" fill-opacity="1" stroke="#000000" stroke-opacity="1" stroke-width="3.2"></circle>
<circle clip-path="url(#clip552)" cx="1771.12" cy="631.072" r="36" fill="#e26f46" fill-rule="evenodd" fill-opacity="1" stroke="#000000" stroke-opacity="1" stroke-width="3.2"></circle>
<circle clip-path="url(#clip552)" cx="1803.72" cy="495.298" r="36" fill="#e26f46" fill-rule="evenodd" fill-opacity="1" stroke="#000000" stroke-opacity="1" stroke-width="3.2"></circle>
<circle clip-path="url(#clip552)" cx="1851.54" cy="359.524" r="36" fill="#e26f46" fill-rule="evenodd" fill-opacity="1" stroke="#000000" stroke-opacity="1" stroke-width="3.2"></circle>
<circle clip-path="url(#clip552)" cx="1887.59" cy="223.75" r="36" fill="#e26f46" fill-rule="evenodd" fill-opacity="1" stroke="#000000" stroke-opacity="1" stroke-width="3.2"></circle>
<circle clip-path="url(#clip552)" cx="2004.38" cy="87.9763" r="36" fill="#e26f46" fill-rule="evenodd" fill-opacity="1" stroke="#000000" stroke-opacity="1" stroke-width="3.2"></circle>
</svg>