<svg xmlns="http://www.w3.org/2000/svg" xmlns:xlink="http://www.w3.org/1999/xlink" width="600" height="400" viewBox="0 0 2400 1600">
<defs>
  <clipPath id="clip630">
    <rect x="0" y="0" width="2400" height="1600"></rect>
  </clipPath>
</defs>
<path clip-path="url(#clip630)" d="
M0 1600 L2400 1600 L2400 0 L0 0  Z
  " fill="#ffffff" fill-rule="evenodd" fill-opacity="1"></path>
<defs>
  <clipPath id="clip631">
    <rect x="480" y="0" width="1681" height="1600"></rect>
  </clipPath>
</defs>
<path clip-path="url(#clip630)" d="
M112.177 1486.45 L2352.76 1486.45 L2352.76 47.2441 L112.177 47.2441  Z
  " fill="#ffffff" fill-rule="evenodd" fill-opacity="1"></path>
<defs>
  <clipPath id="clip632">
    <rect x="112" y="47" width="2242" height="1440"></rect>
  </clipPath>
</defs>
<polyline clip-path="url(#clip632)" style="stroke:#000000; stroke-linecap:butt; stroke-linejoin:round; stroke-width:2; stroke-opacity:0.1; fill:none" points="
  235.413,1486.45 235.413,47.2441 
  "></polyline>
<polyline clip-path="url(#clip632)" style="stroke:#000000; stroke-linecap:butt; stroke-linejoin:round; stroke-width:2; stroke-opacity:0.1; fill:none" points="
  733.94,1486.45 733.94,47.2441 
  "></polyline>
<polyline clip-path="url(#clip632)" style="stroke:#000000; stroke-linecap:butt; stroke-linejoin:round; stroke-width:2; stroke-opacity:0.1; fill:none" points="
  1232.47,1486.45 1232.47,47.2441 
  "></polyline>
<polyline clip-path="url(#clip632)" style="stroke:#000000; stroke-linecap:butt; stroke-linejoin:round; stroke-width:2; stroke-opacity:0.1; fill:none" points="
  1730.99,1486.45 1730.99,47.2441 
  "></polyline>
<polyline clip-path="url(#clip632)" style="stroke:#000000; stroke-linecap:butt; stroke-linejoin:round; stroke-width:2; stroke-opacity:0.1; fill:none" points="
  2229.52,1486.45 2229.52,47.2441 
  "></polyline>
<polyline clip-path="url(#clip630)" style="stroke:#000000; stroke-linecap:butt; stroke-linejoin:round; stroke-width:4; stroke-opacity:1; fill:none" points="
  112.177,1486.45 2352.76,1486.45 
  "></polyline>
<polyline clip-path="url(#clip630)" style="stroke:#000000; stroke-linecap:butt; stroke-linejoin:round; stroke-width:4; stroke-opacity:1; fill:none" points="
  235.413,1486.45 235.413,1467.55 
  "></polyline>
<polyline clip-path="url(#clip630)" style="stroke:#000000; stroke-linecap:butt; stroke-linejoin:round; stroke-width:4; stroke-opacity:1; fill:none" points="
  733.94,1486.45 733.94,1467.55 
  "></polyline>
<polyline clip-path="url(#clip630)" style="stroke:#000000; stroke-linecap:butt; stroke-linejoin:round; stroke-width:4; stroke-opacity:1; fill:none" points="
  1232.47,1486.45 1232.47,1467.55 
  "></polyline>
<polyline clip-path="url(#clip630)" style="stroke:#000000; stroke-linecap:butt; stroke-linejoin:round; stroke-width:4; stroke-opacity:1; fill:none" points="
  1730.99,1486.45 1730.99,1467.55 
  "></polyline>
<polyline clip-path="url(#clip630)" style="stroke:#000000; stroke-linecap:butt; stroke-linejoin:round; stroke-width:4; stroke-opacity:1; fill:none" points="
  2229.52,1486.45 2229.52,1467.55 
  "></polyline>
<path clip-path="url(#clip630)" d="M235.413 1517.37 Q231.802 1517.37 229.973 1520.93 Q228.168 1524.47 228.168 1531.6 Q228.168 1538.71 229.973 1542.27 Q231.802 1545.82 235.413 1545.82 Q239.047 1545.82 240.853 1542.27 Q242.681 1538.71 242.681 1531.6 Q242.681 1524.47 240.853 1520.93 Q239.047 1517.37 235.413 1517.37 M235.413 1513.66 Q241.223 1513.66 244.279 1518.27 Q247.357 1522.85 247.357 1531.6 Q247.357 1540.33 244.279 1544.94 Q241.223 1549.52 235.413 1549.52 Q229.603 1549.52 226.524 1544.94 Q223.469 1540.33 223.469 1531.6 Q223.469 1522.85 226.524 1518.27 Q229.603 1513.66 235.413 1513.66 Z" fill="#000000" fill-rule="evenodd" fill-opacity="1"></path><path clip-path="url(#clip630)" d="M724.218 1514.29 L742.574 1514.29 L742.574 1518.22 L728.5 1518.22 L728.5 1526.7 Q729.518 1526.35 730.537 1526.19 Q731.556 1526 732.574 1526 Q738.361 1526 741.741 1529.17 Q745.12 1532.34 745.12 1537.76 Q745.12 1543.34 741.648 1546.44 Q738.176 1549.52 731.856 1549.52 Q729.681 1549.52 727.412 1549.15 Q725.167 1548.78 722.759 1548.04 L722.759 1543.34 Q724.843 1544.47 727.065 1545.03 Q729.287 1545.58 731.764 1545.58 Q735.768 1545.58 738.106 1543.48 Q740.444 1541.37 740.444 1537.76 Q740.444 1534.15 738.106 1532.04 Q735.768 1529.94 731.764 1529.94 Q729.889 1529.94 728.014 1530.35 Q726.162 1530.77 724.218 1531.65 L724.218 1514.29 Z" fill="#000000" fill-rule="evenodd" fill-opacity="1"></path><path clip-path="url(#clip630)" d="M1207.15 1544.91 L1214.79 1544.91 L1214.79 1518.55 L1206.48 1520.21 L1206.48 1515.95 L1214.75 1514.29 L1219.42 1514.29 L1219.42 1544.91 L1227.06 1544.91 L1227.06 1548.85 L1207.15 1548.85 L1207.15 1544.91 Z" fill="#000000" fill-rule="evenodd" fill-opacity="1"></path><path clip-path="url(#clip630)" d="M1246.51 1517.37 Q1242.89 1517.37 1241.07 1520.93 Q1239.26 1524.47 1239.26 1531.6 Q1239.26 1538.71 1241.07 1542.27 Q1242.89 1545.82 1246.51 1545.82 Q1250.14 1545.82 1251.95 1542.27 Q1253.77 1538.71 1253.77 1531.6 Q1253.77 1524.47 1251.95 1520.93 Q1250.14 1517.37 1246.51 1517.37 M1246.51 1513.66 Q1252.32 1513.66 1255.37 1518.27 Q1258.45 1522.85 1258.45 1531.6 Q1258.45 1540.33 1255.37 1544.94 Q1252.32 1549.52 1246.51 1549.52 Q1240.7 1549.52 1237.62 1544.94 Q1234.56 1540.33 1234.56 1531.6 Q1234.56 1522.85 1237.62 1518.27 Q1240.7 1513.66 1246.51 1513.66 Z" fill="#000000" fill-rule="evenodd" fill-opacity="1"></path><path clip-path="url(#clip630)" d="M1706.18 1544.91 L1713.82 1544.91 L1713.82 1518.55 L1705.51 1520.21 L1705.51 1515.95 L1713.77 1514.29 L1718.45 1514.29 L1718.45 1544.91 L1726.09 1544.91 L1726.09 1548.85 L1706.18 1548.85 L1706.18 1544.91 Z" fill="#000000" fill-rule="evenodd" fill-opacity="1"></path><path clip-path="url(#clip630)" d="M1735.58 1514.29 L1753.93 1514.29 L1753.93 1518.22 L1739.86 1518.22 L1739.86 1526.7 Q1740.88 1526.35 1741.9 1526.19 Q1742.91 1526 1743.93 1526 Q1749.72 1526 1753.1 1529.17 Q1756.48 1532.34 1756.48 1537.76 Q1756.48 1543.34 1753.01 1546.44 Q1749.53 1549.52 1743.22 1549.52 Q1741.04 1549.52 1738.77 1549.15 Q1736.53 1548.78 1734.12 1548.04 L1734.12 1543.34 Q1736.2 1544.47 1738.42 1545.03 Q1740.65 1545.58 1743.12 1545.58 Q1747.13 1545.58 1749.47 1543.48 Q1751.8 1541.37 1751.8 1537.76 Q1751.8 1534.15 1749.47 1532.04 Q1747.13 1529.94 1743.12 1529.94 Q1741.25 1529.94 1739.37 1530.35 Q1737.52 1530.77 1735.58 1531.65 L1735.58 1514.29 Z" fill="#000000" fill-rule="evenodd" fill-opacity="1"></path><path clip-path="url(#clip630)" d="M2208.29 1544.91 L2224.61 1544.91 L2224.61 1548.85 L2202.67 1548.85 L2202.67 1544.91 Q2205.33 1542.16 2209.91 1537.53 Q2214.52 1532.88 2215.7 1531.53 Q2217.95 1529.01 2218.83 1527.27 Q2219.73 1525.51 2219.73 1523.82 Q2219.73 1521.07 2217.78 1519.33 Q2215.86 1517.6 2212.76 1517.6 Q2210.56 1517.6 2208.11 1518.36 Q2205.68 1519.13 2202.9 1520.68 L2202.9 1515.95 Q2205.72 1514.82 2208.18 1514.24 Q2210.63 1513.66 2212.67 1513.66 Q2218.04 1513.66 2221.23 1516.35 Q2224.43 1519.03 2224.43 1523.52 Q2224.43 1525.65 2223.62 1527.57 Q2222.83 1529.47 2220.72 1532.07 Q2220.15 1532.74 2217.04 1535.95 Q2213.94 1539.15 2208.29 1544.91 Z" fill="#000000" fill-rule="evenodd" fill-opacity="1"></path><path clip-path="url(#clip630)" d="M2244.43 1517.37 Q2240.82 1517.37 2238.99 1520.93 Q2237.18 1524.47 2237.18 1531.6 Q2237.18 1538.71 2238.99 1542.27 Q2240.82 1545.82 2244.43 1545.82 Q2248.06 1545.82 2249.87 1542.27 Q2251.7 1538.71 2251.7 1531.6 Q2251.7 1524.47 2249.87 1520.93 Q2248.06 1517.37 2244.43 1517.37 M2244.43 1513.66 Q2250.24 1513.66 2253.29 1518.27 Q2256.37 1522.85 2256.37 1531.6 Q2256.37 1540.33 2253.29 1544.94 Q2250.24 1549.52 2244.43 1549.52 Q2238.62 1549.52 2235.54 1544.94 Q2232.48 1540.33 2232.48 1531.6 Q2232.48 1522.85 2235.54 1518.27 Q2238.62 1513.66 2244.43 1513.66 Z" fill="#000000" fill-rule="evenodd" fill-opacity="1"></path><polyline clip-path="url(#clip632)" style="stroke:#000000; stroke-linecap:butt; stroke-linejoin:round; stroke-width:2; stroke-opacity:0.1; fill:none" points="
  112.177,1445.72 2352.76,1445.72 
  "></polyline>
<polyline clip-path="url(#clip632)" style="stroke:#000000; stroke-linecap:butt; stroke-linejoin:round; stroke-width:2; stroke-opacity:0.1; fill:none" points="
  112.177,1106.28 2352.76,1106.28 
  "></polyline>
<polyline clip-path="url(#clip632)" style="stroke:#000000; stroke-linecap:butt; stroke-linejoin:round; stroke-width:2; stroke-opacity:0.1; fill:none" points="
  112.177,766.846 2352.76,766.846 
  "></polyline>
<polyline clip-path="url(#clip632)" style="stroke:#000000; stroke-linecap:butt; stroke-linejoin:round; stroke-width:2; stroke-opacity:0.1; fill:none" points="
  112.177,427.411 2352.76,427.411 
  "></polyline>
<polyline clip-path="url(#clip632)" style="stroke:#000000; stroke-linecap:butt; stroke-linejoin:round; stroke-width:2; stroke-opacity:0.1; fill:none" points="
  112.177,87.9763 2352.76,87.9763 
  "></polyline>
<polyline clip-path="url(#clip630)" style="stroke:#000000; stroke-linecap:butt; stroke-linejoin:round; stroke-width:4; stroke-opacity:1; fill:none" points="
  112.177,1486.45 112.177,47.2441 
  "></polyline>
<polyline clip-path="url(#clip630)" style="stroke:#000000; stroke-linecap:butt; stroke-linejoin:round; stroke-width:4; stroke-opacity:1; fill:none" points="
  112.177,1445.72 131.075,1445.72 
  "></polyline>
<polyline clip-path="url(#clip630)" style="stroke:#000000; stroke-linecap:butt; stroke-linejoin:round; stroke-width:4; stroke-opacity:1; fill:none" points="
  112.177,1106.28 131.075,1106.28 
  "></polyline>
<polyline clip-path="url(#clip630)" style="stroke:#000000; stroke-linecap:butt; stroke-linejoin:round; stroke-width:4; stroke-opacity:1; fill:none" points="
  112.177,766.846 131.075,766.846 
  "></polyline>
<polyline clip-path="url(#clip630)" style="stroke:#000000; stroke-linecap:butt; stroke-linejoin:round; stroke-width:4; stroke-opacity:1; fill:none" points="
  112.177,427.411 131.075,427.411 
  "></polyline>
<polyline clip-path="url(#clip630)" style="stroke:#000000; stroke-linecap:butt; stroke-linejoin:round; stroke-width:4; stroke-opacity:1; fill:none" points="
  112.177,87.9763 131.075,87.9763 
  "></polyline>
<path clip-path="url(#clip630)" d="M64.2328 1431.51 Q60.6217 1431.51 58.793 1435.08 Q56.9875 1438.62 56.9875 1445.75 Q56.9875 1452.86 58.793 1456.42 Q60.6217 1459.96 64.2328 1459.96 Q67.867 1459.96 69.6726 1456.42 Q71.5013 1452.86 71.5013 1445.75 Q71.5013 1438.62 69.6726 1435.08 Q67.867 1431.51 64.2328 1431.51 M64.2328 1427.81 Q70.0429 1427.81 73.0985 1432.42 Q76.1772 1437 76.1772 1445.75 Q76.1772 1454.48 73.0985 1459.08 Q70.0429 1463.67 64.2328 1463.67 Q58.4226 1463.67 55.344 1459.08 Q52.2884 1454.48 52.2884 1445.75 Q52.2884 1437 55.344 1432.42 Q58.4226 1427.81 64.2328 1427.81 Z" fill="#000000" fill-rule="evenodd" fill-opacity="1"></path><path clip-path="url(#clip630)" d="M59.8578 1119.63 L76.1772 1119.63 L76.1772 1123.56 L54.2328 1123.56 L54.2328 1119.63 Q56.8949 1116.87 61.4782 1112.24 Q66.0846 1107.59 67.2652 1106.25 Q69.5105 1103.72 70.3902 1101.99 Q71.2929 1100.23 71.2929 1098.54 Q71.2929 1095.78 69.3485 1094.05 Q67.4272 1092.31 64.3254 1092.31 Q62.1263 1092.31 59.6726 1093.07 Q57.2421 1093.84 54.4643 1095.39 L54.4643 1090.67 Q57.2884 1089.53 59.7421 1088.95 Q62.1958 1088.38 64.2328 1088.38 Q69.6031 1088.38 72.7976 1091.06 Q75.992 1093.75 75.992 1098.24 Q75.992 1100.37 75.1818 1102.29 Q74.3948 1104.19 72.2883 1106.78 Q71.7096 1107.45 68.6078 1110.67 Q65.5059 1113.86 59.8578 1119.63 Z" fill="#000000" fill-rule="evenodd" fill-opacity="1"></path><path clip-path="url(#clip630)" d="M66.5939 753.64 L54.7884 772.089 L66.5939 772.089 L66.5939 753.64 M65.367 749.566 L71.2466 749.566 L71.2466 772.089 L76.1772 772.089 L76.1772 775.978 L71.2466 775.978 L71.2466 784.126 L66.5939 784.126 L66.5939 775.978 L50.9921 775.978 L50.9921 771.464 L65.367 749.566 Z" fill="#000000" fill-rule="evenodd" fill-opacity="1"></path><path clip-path="url(#clip630)" d="M64.6495 425.548 Q61.5013 425.548 59.6495 427.7 Q57.8208 429.853 57.8208 433.603 Q57.8208 437.33 59.6495 439.506 Q61.5013 441.659 64.6495 441.659 Q67.7976 441.659 69.6263 439.506 Q71.4781 437.33 71.4781 433.603 Q71.4781 429.853 69.6263 427.7 Q67.7976 425.548 64.6495 425.548 M73.9318 410.895 L73.9318 415.154 Q72.1726 414.321 70.367 413.881 Q68.5846 413.441 66.8254 413.441 Q62.1958 413.441 59.7421 416.566 Q57.3115 419.691 56.9643 426.011 Q58.33 423.997 60.3902 422.932 Q62.4504 421.844 64.9272 421.844 Q70.1355 421.844 73.1448 425.015 Q76.1772 428.163 76.1772 433.603 Q76.1772 438.927 73.029 442.145 Q69.8809 445.362 64.6495 445.362 Q58.6541 445.362 55.4828 440.779 Q52.3116 436.173 52.3116 427.446 Q52.3116 419.251 56.2004 414.39 Q60.0893 409.506 66.6402 409.506 Q68.3994 409.506 70.1818 409.853 Q71.9874 410.201 73.9318 410.895 Z" fill="#000000" fill-rule="evenodd" fill-opacity="1"></path><path clip-path="url(#clip630)" d="M64.3254 88.8443 Q60.9921 88.8443 59.0708 90.6267 Q57.1726 92.4091 57.1726 95.5341 Q57.1726 98.6591 59.0708 100.441 Q60.9921 102.224 64.3254 102.224 Q67.6587 102.224 69.58 100.441 Q71.5013 98.6359 71.5013 95.5341 Q71.5013 92.4091 69.58 90.6267 Q67.6819 88.8443 64.3254 88.8443 M59.6495 86.8536 Q56.6402 86.1129 54.9504 84.0527 Q53.2838 81.9925 53.2838 79.0296 Q53.2838 74.8861 56.2236 72.4787 Q59.1865 70.0713 64.3254 70.0713 Q69.4874 70.0713 72.4272 72.4787 Q75.367 74.8861 75.367 79.0296 Q75.367 81.9925 73.6772 84.0527 Q72.0105 86.1129 69.0244 86.8536 Q72.404 87.6406 74.279 89.9323 Q76.1772 92.2239 76.1772 95.5341 Q76.1772 100.557 73.0985 103.242 Q70.0429 105.928 64.3254 105.928 Q58.6078 105.928 55.5291 103.242 Q52.4736 100.557 52.4736 95.5341 Q52.4736 92.2239 54.3717 89.9323 Q56.2699 87.6406 59.6495 86.8536 M57.9365 79.4694 Q57.9365 82.1545 59.6032 83.6592 Q61.293 85.1638 64.3254 85.1638 Q67.3346 85.1638 69.0244 83.6592 Q70.7374 82.1545 70.7374 79.4694 Q70.7374 76.7842 69.0244 75.2796 Q67.3346 73.775 64.3254 73.775 Q61.293 73.775 59.6032 75.2796 Q57.9365 76.7842 57.9365 79.4694 Z" fill="#000000" fill-rule="evenodd" fill-opacity="1"></path><path clip-path="url(#clip632)" d="
M235.413 1445.72 L235.413 1445.72 L285.266 1445.72 L285.266 1445.72 L235.413 1445.72 L235.413 1445.72  Z
  " fill="#009af9" fill-rule="evenodd" fill-opacity="1"></path>
<polyline clip-path="url(#clip632)" style="stroke:#000000; stroke-linecap:butt; stroke-linejoin:round; stroke-width:4; stroke-opacity:1; fill:none" points="
  235.413,1445.72 235.413,1445.72 285.266,1445.72 235.413,1445.72 
  "></polyline>
<path clip-path="url(#clip632)" d="
M285.266 1445.72 L285.266 1445.72 L335.118 1445.72 L335.118 1445.72 L285.266 1445.72 L285.266 1445.72  Z
  " fill="#009af9" fill-rule="evenodd" fill-opacity="1"></path>
<polyline clip-path="url(#clip632)" style="stroke:#000000; stroke-linecap:butt; stroke-linejoin:round; stroke-width:4; stroke-opacity:1; fill:none" points="
  285.266,1445.72 285.266,1445.72 335.118,1445.72 285.266,1445.72 
  "></polyline>
<path clip-path="url(#clip632)" d="
M335.118 1445.72 L335.118 1445.72 L384.971 1445.72 L384.971 1445.72 L335.118 1445.72 L335.118 1445.72  Z
  " fill="#009af9" fill-rule="evenodd" fill-opacity="1"></path>
<polyline clip-path="url(#clip632)" style="stroke:#000000; stroke-linecap:butt; stroke-linejoin:round; stroke-width:4; stroke-opacity:1; fill:none" points="
  335.118,1445.72 335.118,1445.72 384.971,1445.72 335.118,1445.72 
  "></polyline>
<path clip-path="url(#clip632)" d="
M384.971 1445.72 L384.971 1445.72 L434.824 1445.72 L434.824 1445.72 L384.971 1445.72 L384.971 1445.72  Z
  " fill="#009af9" fill-rule="evenodd" fill-opacity="1"></path>
<polyline clip-path="url(#clip632)" style="stroke:#000000; stroke-linecap:butt; stroke-linejoin:round; stroke-width:4; stroke-opacity:1; fill:none" points="
  384.971,1445.72 384.971,1445.72 434.824,1445.72 384.971,1445.72 
  "></polyline>
<path clip-path="url(#clip632)" d="
M434.824 1445.72 L434.824 1445.72 L484.676 1445.72 L484.676 1445.72 L434.824 1445.72 L434.824 1445.72  Z
  " fill="#009af9" fill-rule="evenodd" fill-opacity="1"></path>
<polyline clip-path="url(#clip632)" style="stroke:#000000; stroke-linecap:butt; stroke-linejoin:round; stroke-width:4; stroke-opacity:1; fill:none" points="
  434.824,1445.72 434.824,1445.72 484.676,1445.72 434.824,1445.72 
  "></polyline>
<path clip-path="url(#clip632)" d="
M484.676 1445.72 L484.676 1445.72 L534.529 1445.72 L534.529 1445.72 L484.676 1445.72 L484.676 1445.72  Z
  " fill="#009af9" fill-rule="evenodd" fill-opacity="1"></path>
<polyline clip-path="url(#clip632)" style="stroke:#000000; stroke-linecap:butt; stroke-linejoin:round; stroke-width:4; stroke-opacity:1; fill:none" points="
  484.676,1445.72 484.676,1445.72 534.529,1445.72 484.676,1445.72 
  "></polyline>
<path clip-path="url(#clip632)" d="
M534.529 1445.72 L534.529 1445.72 L584.382 1445.72 L584.382 1445.72 L534.529 1445.72 L534.529 1445.72  Z
  " fill="#009af9" fill-rule="evenodd" fill-opacity="1"></path>
<polyline clip-path="url(#clip632)" style="stroke:#000000; stroke-linecap:butt; stroke-linejoin:round; stroke-width:4; stroke-opacity:1; fill:none" points="
  534.529,1445.72 534.529,1445.72 584.382,1445.72 534.529,1445.72 
  "></polyline>
<path clip-path="url(#clip632)" d="
M584.382 1445.72 L584.382 1445.72 L634.234 1445.72 L634.234 1445.72 L584.382 1445.72 L584.382 1445.72  Z
  " fill="#009af9" fill-rule="evenodd" fill-opacity="1"></path>
<polyline clip-path="url(#clip632)" style="stroke:#000000; stroke-linecap:butt; stroke-linejoin:round; stroke-width:4; stroke-opacity:1; fill:none" points="
  584.382,1445.72 584.382,1445.72 634.234,1445.72 584.382,1445.72 
  "></polyline>
<path clip-path="url(#clip632)" d="
M634.234 1445.72 L634.234 1445.72 L684.087 1445.72 L684.087 1445.72 L634.234 1445.72 L634.234 1445.72  Z
  " fill="#009af9" fill-rule="evenodd" fill-opacity="1"></path>
<polyline clip-path="url(#clip632)" style="stroke:#000000; stroke-linecap:butt; stroke-linejoin:round; stroke-width:4; stroke-opacity:1; fill:none" points="
  634.234,1445.72 634.234,1445.72 684.087,1445.72 634.234,1445.72 
  "></polyline>
<path clip-path="url(#clip632)" d="
M684.087 1276 L684.087 1445.72 L733.94 1445.72 L733.94 1276 L684.087 1276 L684.087 1276  Z
  " fill="#009af9" fill-rule="evenodd" fill-opacity="1"></path>
<polyline clip-path="url(#clip632)" style="stroke:#000000; stroke-linecap:butt; stroke-linejoin:round; stroke-width:4; stroke-opacity:1; fill:none" points="
  684.087,1276 684.087,1445.72 733.94,1445.72 733.94,1276 684.087,1276 
  "></polyline>
<path clip-path="url(#clip632)" d="
M733.94 1106.28 L733.94 1445.72 L783.792 1445.72 L783.792 1106.28 L733.94 1106.28 L733.94 1106.28  Z
  " fill="#009af9" fill-rule="evenodd" fill-opacity="1"></path>
<polyline clip-path="url(#clip632)" style="stroke:#000000; stroke-linecap:butt; stroke-linejoin:round; stroke-width:4; stroke-opacity:1; fill:none" points="
  733.94,1106.28 733.94,1445.72 783.792,1445.72 783.792,1106.28 733.94,1106.28 
  "></polyline>
<path clip-path="url(#clip632)" d="
M783.792 1276 L783.792 1445.72 L833.645 1445.72 L833.645 1276 L783.792 1276 L783.792 1276  Z
  " fill="#009af9" fill-rule="evenodd" fill-opacity="1"></path>
<polyline clip-path="url(#clip632)" style="stroke:#000000; stroke-linecap:butt; stroke-linejoin:round; stroke-width:4; stroke-opacity:1; fill:none" points="
  783.792,1276 783.792,1445.72 833.645,1445.72 833.645,1276 783.792,1276 
  "></polyline>
<path clip-path="url(#clip632)" d="
M833.645 1106.28 L833.645 1445.72 L883.498 1445.72 L883.498 1106.28 L833.645 1106.28 L833.645 1106.28  Z
  " fill="#009af9" fill-rule="evenodd" fill-opacity="1"></path>
<polyline clip-path="url(#clip632)" style="stroke:#000000; stroke-linecap:butt; stroke-linejoin:round; stroke-width:4; stroke-opacity:1; fill:none" points="
  833.645,1106.28 833.645,1445.72 883.498,1445.72 883.498,1106.28 833.645,1106.28 
  "></polyline>
<path clip-path="url(#clip632)" d="
M883.498 936.563 L883.498 1445.72 L933.35 1445.72 L933.35 936.563 L883.498 936.563 L883.498 936.563  Z
  " fill="#009af9" fill-rule="evenodd" fill-opacity="1"></path>
<polyline clip-path="url(#clip632)" style="stroke:#000000; stroke-linecap:butt; stroke-linejoin:round; stroke-width:4; stroke-opacity:1; fill:none" points="
  883.498,936.563 883.498,1445.72 933.35,1445.72 933.35,936.563 883.498,936.563 
  "></polyline>
<path clip-path="url(#clip632)" d="
M933.35 936.563 L933.35 1445.72 L983.203 1445.72 L983.203 936.563 L933.35 936.563 L933.35 936.563  Z
  " fill="#009af9" fill-rule="evenodd" fill-opacity="1"></path>
<polyline clip-path="url(#clip632)" style="stroke:#000000; stroke-linecap:butt; stroke-linejoin:round; stroke-width:4; stroke-opacity:1; fill:none" points="
  933.35,936.563 933.35,1445.72 983.203,1445.72 983.203,936.563 933.35,936.563 
  "></polyline>
<path clip-path="url(#clip632)" d="
M983.203 936.563 L983.203 1445.72 L1033.06 1445.72 L1033.06 936.563 L983.203 936.563 L983.203 936.563  Z
  " fill="#009af9" fill-rule="evenodd" fill-opacity="1"></path>
<polyline clip-path="url(#clip632)" style="stroke:#000000; stroke-linecap:butt; stroke-linejoin:round; stroke-width:4; stroke-opacity:1; fill:none" points="
  983.203,936.563 983.203,1445.72 1033.06,1445.72 1033.06,936.563 983.203,936.563 
  "></polyline>
<path clip-path="url(#clip632)" d="
M1033.06 936.563 L1033.06 1445.72 L1082.91 1445.72 L1082.91 936.563 L1033.06 936.563 L1033.06 936.563  Z
  " fill="#009af9" fill-rule="evenodd" fill-opacity="1"></path>
<polyline clip-path="url(#clip632)" style="stroke:#000000; stroke-linecap:butt; stroke-linejoin:round; stroke-width:4; stroke-opacity:1; fill:none" points="
  1033.06,936.563 1033.06,1445.72 1082.91,1445.72 1082.91,936.563 1033.06,936.563 
  "></polyline>
<path clip-path="url(#clip632)" d="
M1082.91 936.563 L1082.91 1445.72 L1132.76 1445.72 L1132.76 936.563 L1082.91 936.563 L1082.91 936.563  Z
  " fill="#009af9" fill-rule="evenodd" fill-opacity="1"></path>
<polyline clip-path="url(#clip632)" style="stroke:#000000; stroke-linecap:butt; stroke-linejoin:round; stroke-width:4; stroke-opacity:1; fill:none" points="
  1082.91,936.563 1082.91,1445.72 1132.76,1445.72 1132.76,936.563 1082.91,936.563 
  "></polyline>
<path clip-path="url(#clip632)" d="
M1132.76 766.846 L1132.76 1445.72 L1182.61 1445.72 L1182.61 766.846 L1132.76 766.846 L1132.76 766.846  Z
  " fill="#009af9" fill-rule="evenodd" fill-opacity="1"></path>
<polyline clip-path="url(#clip632)" style="stroke:#000000; stroke-linecap:butt; stroke-linejoin:round; stroke-width:4; stroke-opacity:1; fill:none" points="
  1132.76,766.846 1132.76,1445.72 1182.61,1445.72 1182.61,766.846 1132.76,766.846 
  "></polyline>
<path clip-path="url(#clip632)" d="
M1182.61 766.846 L1182.61 1445.72 L1232.47 1445.72 L1232.47 766.846 L1182.61 766.846 L1182.61 766.846  Z
  " fill="#009af9" fill-rule="evenodd" fill-opacity="1"></path>
<polyline clip-path="url(#clip632)" style="stroke:#000000; stroke-linecap:butt; stroke-linejoin:round; stroke-width:4; stroke-opacity:1; fill:none" points="
  1182.61,766.846 1182.61,1445.72 1232.47,1445.72 1232.47,766.846 1182.61,766.846 
  "></polyline>
<path clip-path="url(#clip632)" d="
M1232.47 766.846 L1232.47 1445.72 L1282.32 1445.72 L1282.32 766.846 L1232.47 766.846 L1232.47 766.846  Z
  " fill="#009af9" fill-rule="evenodd" fill-opacity="1"></path>
<polyline clip-path="url(#clip632)" style="stroke:#000000; stroke-linecap:butt; stroke-linejoin:round; stroke-width:4; stroke-opacity:1; fill:none" points="
  1232.47,766.846 1232.47,1445.72 1282.32,1445.72 1282.32,766.846 1232.47,766.846 
  "></polyline>
<path clip-path="url(#clip632)" d="
M1282.32 597.129 L1282.32 1445.72 L1332.17 1445.72 L1332.17 597.129 L1282.32 597.129 L1282.32 597.129  Z
  " fill="#009af9" fill-rule="evenodd" fill-opacity="1"></path>
<polyline clip-path="url(#clip632)" style="stroke:#000000; stroke-linecap:butt; stroke-linejoin:round; stroke-width:4; stroke-opacity:1; fill:none" points="
  1282.32,597.129 1282.32,1445.72 1332.17,1445.72 1332.17,597.129 1282.32,597.129 
  "></polyline>
<path clip-path="url(#clip632)" d="
M1332.17 766.846 L1332.17 1445.72 L1382.02 1445.72 L1382.02 766.846 L1332.17 766.846 L1332.17 766.846  Z
  " fill="#009af9" fill-rule="evenodd" fill-opacity="1"></path>
<polyline clip-path="url(#clip632)" style="stroke:#000000; stroke-linecap:butt; stroke-linejoin:round; stroke-width:4; stroke-opacity:1; fill:none" points="
  1332.17,766.846 1332.17,1445.72 1382.02,1445.72 1382.02,766.846 1332.17,766.846 
  "></polyline>
<path clip-path="url(#clip632)" d="
M1382.02 427.411 L1382.02 1445.72 L1431.88 1445.72 L1431.88 427.411 L1382.02 427.411 L1382.02 427.411  Z
  " fill="#009af9" fill-rule="evenodd" fill-opacity="1"></path>
<polyline clip-path="url(#clip632)" style="stroke:#000000; stroke-linecap:butt; stroke-linejoin:round; stroke-width:4; stroke-opacity:1; fill:none" points="
  1382.02,427.411 1382.02,1445.72 1431.88,1445.72 1431.88,427.411 1382.02,427.411 
  "></polyline>
<path clip-path="url(#clip632)" d="
M1431.88 597.129 L1431.88 1445.72 L1481.73 1445.72 L1481.73 597.129 L1431.88 597.129 L1431.88 597.129  Z
  " fill="#009af9" fill-rule="evenodd" fill-opacity="1"></path>
<polyline clip-path="url(#clip632)" style="stroke:#000000; stroke-linecap:butt; stroke-linejoin:round; stroke-width:4; stroke-opacity:1; fill:none" points="
  1431.88,597.129 1431.88,1445.72 1481.73,1445.72 1481.73,597.129 1431.88,597.129 
  "></polyline>
<path clip-path="url(#clip632)" d="
M1481.73 257.694 L1481.73 1445.72 L1531.58 1445.72 L1531.58 257.694 L1481.73 257.694 L1481.73 257.694  Z
  " fill="#009af9" fill-rule="evenodd" fill-opacity="1"></path>
<polyline clip-path="url(#clip632)" style="stroke:#000000; stroke-linecap:butt; stroke-linejoin:round; stroke-width:4; stroke-opacity:1; fill:none" points="
  1481.73,257.694 1481.73,1445.72 1531.58,1445.72 1531.58,257.694 1481.73,257.694 
  "></polyline>
<path clip-path="url(#clip632)" d="
M1531.58 257.694 L1531.58 1445.72 L1581.44 1445.72 L1581.44 257.694 L1531.58 257.694 L1531.58 257.694  Z
  " fill="#009af9" fill-rule="evenodd" fill-opacity="1"></path>
<polyline clip-path="url(#clip632)" style="stroke:#000000; stroke-linecap:butt; stroke-linejoin:round; stroke-width:4; stroke-opacity:1; fill:none" points="
  1531.58,257.694 1531.58,1445.72 1581.44,1445.72 1581.44,257.694 1531.58,257.694 
  "></polyline>
<path clip-path="url(#clip632)" d="
M1581.44 257.694 L1581.44 1445.72 L1631.29 1445.72 L1631.29 257.694 L1581.44 257.694 L1581.44 257.694  Z
  " fill="#009af9" fill-rule="evenodd" fill-opacity="1"></path>
<polyline clip-path="url(#clip632)" style="stroke:#000000; stroke-linecap:butt; stroke-linejoin:round; stroke-width:4; stroke-opacity:1; fill:none" points="
  1581.44,257.694 1581.44,1445.72 1631.29,1445.72 1631.29,257.694 1581.44,257.694 
  "></polyline>
<path clip-path="url(#clip632)" d="
M1631.29 87.9763 L1631.29 1445.72 L1681.14 1445.72 L1681.14 87.9763 L1631.29 87.9763 L1631.29 87.9763  Z
  " fill="#009af9" fill-rule="evenodd" fill-opacity="1"></path>
<polyline clip-path="url(#clip632)" style="stroke:#000000; stroke-linecap:butt; stroke-linejoin:round; stroke-width:4; stroke-opacity:1; fill:none" points="
  1631.29,87.9763 1631.29,1445.72 1681.14,1445.72 1681.14,87.9763 1631.29,87.9763 
  "></polyline>
<path clip-path="url(#clip632)" d="
M1681.14 87.9763 L1681.14 1445.72 L1730.99 1445.72 L1730.99 87.9763 L1681.14 87.9763 L1681.14 87.9763  Z
  " fill="#009af9" fill-rule="evenodd" fill-opacity="1"></path>
<polyline clip-path="url(#clip632)" style="stroke:#000000; stroke-linecap:butt; stroke-linejoin:round; stroke-width:4; stroke-opacity:1; fill:none" points="
  1681.14,87.9763 1681.14,1445.72 1730.99,1445.72 1730.99,87.9763 1681.14,87.9763 
  "></polyline>
<path clip-path="url(#clip632)" d="
M1730.99 257.694 L1730.99 1445.72 L1780.85 1445.72 L1780.85 257.694 L1730.99 257.694 L1730.99 257.694  Z
  " fill="#009af9" fill-rule="evenodd" fill-opacity="1"></path>
<polyline clip-path="url(#clip632)" style="stroke:#000000; stroke-linecap:butt; stroke-linejoin:round; stroke-width:4; stroke-opacity:1; fill:none" points="
  1730.99,257.694 1730.99,1445.72 1780.85,1445.72 1780.85,257.694 1730.99,257.694 
  "></polyline>
<path clip-path="url(#clip632)" d="
M1780.85 936.563 L1780.85 1445.72 L1830.7 1445.72 L1830.7 936.563 L1780.85 936.563 L1780.85 936.563  Z
  " fill="#009af9" fill-rule="evenodd" fill-opacity="1"></path>
<polyline clip-path="url(#clip632)" style="stroke:#000000; stroke-linecap:butt; stroke-linejoin:round; stroke-width:4; stroke-opacity:1; fill:none" points="
  1780.85,936.563 1780.85,1445.72 1830.7,1445.72 1830.7,936.563 1780.85,936.563 
  "></polyline>
<path clip-path="url(#clip632)" d="
M1830.7 1445.72 L1830.7 1445.72 L1880.55 1445.72 L1880.55 1445.72 L1830.7 1445.72 L1830.7 1445.72  Z
  " fill="#009af9" fill-rule="evenodd" fill-opacity="1"></path>
<polyline clip-path="url(#clip632)" style="stroke:#000000; stroke-linecap:butt; stroke-linejoin:round; stroke-width:4; stroke-opacity:1; fill:none" points="
  1830.7,1445.72 1830.7,1445.72 1880.55,1445.72 1830.7,1445.72 
  "></polyline>
<path clip-path="url(#clip632)" d="
M1880.55 1445.72 L1880.55 1445.72 L1930.4 1445.72 L1930.4 1445.72 L1880.55 1445.72 L1880.55 1445.72  Z
  " fill="#009af9" fill-rule="evenodd" fill-opacity="1"></path>
<polyline clip-path="url(#clip632)" style="stroke:#000000; stroke-linecap:butt; stroke-linejoin:round; stroke-width:4; stroke-opacity:1; fill:none" points="
  1880.55,1445.72 1880.55,1445.72 1930.4,1445.72 1880.55,1445.72 
  "></polyline>
<path clip-path="url(#clip632)" d="
M1930.4 1445.72 L1930.4 1445.72 L1980.26 1445.72 L1980.26 1445.72 L1930.4 1445.72 L1930.4 1445.72  Z
  " fill="#009af9" fill-rule="evenodd" fill-opacity="1"></path>
<polyline clip-path="url(#clip632)" style="stroke:#000000; stroke-linecap:butt; stroke-linejoin:round; stroke-width:4; stroke-opacity:1; fill:none" points="
  1930.4,1445.72 1930.4,1445.72 1980.26,1445.72 1930.4,1445.72 
  "></polyline>
<path clip-path="url(#clip632)" d="
M1980.26 1445.72 L1980.26 1445.72 L2030.11 1445.72 L2030.11 1445.72 L1980.26 1445.72 L1980.26 1445.72  Z
  " fill="#009af9" fill-rule="evenodd" fill-opacity="1"></path>
<polyline clip-path="url(#clip632)" style="stroke:#000000; stroke-linecap:butt; stroke-linejoin:round; stroke-width:4; stroke-opacity:1; fill:none" points="
  1980.26,1445.72 1980.26,1445.72 2030.11,1445.72 1980.26,1445.72 
  "></polyline>
<path clip-path="url(#clip632)" d="
M2030.11 1445.72 L2030.11 1445.72 L2079.96 1445.72 L2079.96 1445.72 L2030.11 1445.72 L2030.11 1445.72  Z
  " fill="#009af9" fill-rule="evenodd" fill-opacity="1"></path>
<polyline clip-path="url(#clip632)" style="stroke:#000000; stroke-linecap:butt; stroke-linejoin:round; stroke-width:4; stroke-opacity:1; fill:none" points="
  2030.11,1445.72 2030.11,1445.72 2079.96,1445.72 2030.11,1445.72 
  "></polyline>
<path clip-path="url(#clip632)" d="
M2079.96 1445.72 L2079.96 1445.72 L2129.81 1445.72 L2129.81 1445.72 L2079.96 1445.72 L2079.96 1445.72  Z
  " fill="#009af9" fill-rule="evenodd" fill-opacity="1"></path>
<polyline clip-path="url(#clip632)" style="stroke:#000000; stroke-linecap:butt; stroke-linejoin:round; stroke-width:4; stroke-opacity:1; fill:none" points="
  2079.96,1445.72 2079.96,1445.72 2129.81,1445.72 2079.96,1445.72 
  "></polyline>
<path clip-path="url(#clip632)" d="
M2129.81 1445.72 L2129.81 1445.72 L2179.67 1445.72 L2179.67 1445.72 L2129.81 1445.72 L2129.81 1445.72  Z
  " fill="#009af9" fill-rule="evenodd" fill-opacity="1"></path>
<polyline clip-path="url(#clip632)" style="stroke:#000000; stroke-linecap:butt; stroke-linejoin:round; stroke-width:4; stroke-opacity:1; fill:none" points="
  2129.81,1445.72 2129.81,1445.72 2179.67,1445.72 2129.81,1445.72 
  "></polyline>
<path clip-path="url(#clip632)" d="
M2179.67 1445.72 L2179.67 1445.72 L2229.52 1445.72 L2229.52 1445.72 L2179.67 1445.72 L2179.67 1445.72  Z
  " fill="#009af9" fill-rule="evenodd" fill-opacity="1"></path>
<polyline clip-path="url(#clip632)" style="stroke:#000000; stroke-linecap:butt; stroke-linejoin:round; stroke-width:4; stroke-opacity:1; fill:none" points="
  2179.67,1445.72 2179.67,1445.72 2229.52,1445.72 2179.67,1445.72 
  "></polyline>
<circle clip-path="url(#clip632)" style="fill:#009af9; stroke:none; fill-opacity:0" cx="260.339" cy="1445.72" r="2"></circle>
<circle clip-path="url(#clip632)" style="fill:#009af9; stroke:none; fill-opacity:0" cx="310.192" cy="1445.72" r="2"></circle>
<circle clip-path="url(#clip632)" style="fill:#009af9; stroke:none; fill-opacity:0" cx="360.045" cy="1445.72" r="2"></circle>
<circle clip-path="url(#clip632)" style="fill:#009af9; stroke:none; fill-opacity:0" cx="409.897" cy="1445.72" r="2"></circle>
<circle clip-path="url(#clip632)" style="fill:#009af9; stroke:none; fill-opacity:0" cx="459.75" cy="1445.72" r="2"></circle>
<circle clip-path="url(#clip632)" style="fill:#009af9; stroke:none; fill-opacity:0" cx="509.603" cy="1445.72" r="2"></circle>
<circle clip-path="url(#clip632)" style="fill:#009af9; stroke:none; fill-opacity:0" cx="559.455" cy="1445.72" r="2"></circle>
<circle clip-path="url(#clip632)" style="fill:#009af9; stroke:none; fill-opacity:0" cx="609.308" cy="1445.72" r="2"></circle>
<circle clip-path="url(#clip632)" style="fill:#009af9; stroke:none; fill-opacity:0" cx="659.161" cy="1445.72" r="2"></circle>
<circle clip-path="url(#clip632)" style="fill:#009af9; stroke:none; fill-opacity:0" cx="709.013" cy="1276" r="2"></circle>
<circle clip-path="url(#clip632)" style="fill:#009af9; stroke:none; fill-opacity:0" cx="758.866" cy="1106.28" r="2"></circle>
<circle clip-path="url(#clip632)" style="fill:#009af9; stroke:none; fill-opacity:0" cx="808.719" cy="1276" r="2"></circle>
<circle clip-path="url(#clip632)" style="fill:#009af9; stroke:none; fill-opacity:0" cx="858.571" cy="1106.28" r="2"></circle>
<circle clip-path="url(#clip632)" style="fill:#009af9; stroke:none; fill-opacity:0" cx="908.424" cy="936.563" r="2"></circle>
<circle clip-path="url(#clip632)" style="fill:#009af9; stroke:none; fill-opacity:0" cx="958.277" cy="936.563" r="2"></circle>
<circle clip-path="url(#clip632)" style="fill:#009af9; stroke:none; fill-opacity:0" cx="1008.13" cy="936.563" r="2"></circle>
<circle clip-path="url(#clip632)" style="fill:#009af9; stroke:none; fill-opacity:0" cx="1057.98" cy="936.563" r="2"></circle>
<circle clip-path="url(#clip632)" style="fill:#009af9; stroke:none; fill-opacity:0" cx="1107.83" cy="936.563" r="2"></circle>
<circle clip-path="url(#clip632)" style="fill:#009af9; stroke:none; fill-opacity:0" cx="1157.69" cy="766.846" r="2"></circle>
<circle clip-path="url(#clip632)" style="fill:#009af9; stroke:none; fill-opacity:0" cx="1207.54" cy="766.846" r="2"></circle>
<circle clip-path="url(#clip632)" style="fill:#009af9; stroke:none; fill-opacity:0" cx="1257.39" cy="766.846" r="2"></circle>
<circle clip-path="url(#clip632)" style="fill:#009af9; stroke:none; fill-opacity:0" cx="1307.25" cy="597.129" r="2"></circle>
<circle clip-path="url(#clip632)" style="fill:#009af9; stroke:none; fill-opacity:0" cx="1357.1" cy="766.846" r="2"></circle>
<circle clip-path="url(#clip632)" style="fill:#009af9; stroke:none; fill-opacity:0" cx="1406.95" cy="427.411" r="2"></circle>
<circle clip-path="url(#clip632)" style="fill:#009af9; stroke:none; fill-opacity:0" cx="1456.8" cy="597.129" r="2"></circle>
<circle clip-path="url(#clip632)" style="fill:#009af9; stroke:none; fill-opacity:0" cx="1506.66" cy="257.694" r="2"></circle>
<circle clip-path="url(#clip632)" style="fill:#009af9; stroke:none; fill-opacity:0" cx="1556.51" cy="257.694" r="2"></circle>
<circle clip-path="url(#clip632)" style="fill:#009af9; stroke:none; fill-opacity:0" cx="1606.36" cy="257.694" r="2"></circle>
<circle clip-path="url(#clip632)" style="fill:#009af9; stroke:none; fill-opacity:0" cx="1656.21" cy="87.9763" r="2"></circle>
<circle clip-path="url(#clip632)" style="fill:#009af9; stroke:none; fill-opacity:0" cx="1706.07" cy="87.9763" r="2"></circle>
<circle clip-path="url(#clip632)" style="fill:#009af9; stroke:none; fill-opacity:0" cx="1755.92" cy="257.694" r="2"></circle>
<circle clip-path="url(#clip632)" style="fill:#009af9; stroke:none; fill-opacity:0" cx="1805.77" cy="936.563" r="2"></circle>
<circle clip-path="url(#clip632)" style="fill:#009af9; stroke:none; fill-opacity:0" cx="1855.63" cy="1445.72" r="2"></circle>
<circle clip-path="url(#clip632)" style="fill:#009af9; stroke:none; fill-opacity:0" cx="1905.48" cy="1445.72" r="2"></circle>
<circle clip-path="url(#clip632)" style="fill:#009af9; stroke:none; fill-opacity:0" cx="1955.33" cy="1445.72" r="2"></circle>
<circle clip-path="url(#clip632)" style="fill:#009af9; stroke:none; fill-opacity:0" cx="2005.18" cy="1445.72" r="2"></circle>
<circle clip-path="url(#clip632)" style="fill:#009af9; stroke:none; fill-opacity:0" cx="2055.04" cy="1445.72" r="2"></circle>
<circle clip-path="url(#clip632)" style="fill:#009af9; stroke:none; fill-opacity:0" cx="2104.89" cy="1445.72" r="2"></circle>
<circle clip-path="url(#clip632)" style="fill:#009af9; stroke:none; fill-opacity:0" cx="2154.74" cy="1445.72" r="2"></circle>
<circle clip-path="url(#clip632)" style="fill:#009af9; stroke:none; fill-opacity:0" cx="2204.59" cy="1445.72" r="2"></circle>
<path clip-path="url(#clip630)" d="
M1976.69 198.898 L2278.07 198.898 L2278.07 95.2176 L1976.69 95.2176  Z
  " fill="#ffffff" fill-rule="evenodd" fill-opacity="1"></path>
<polyline clip-path="url(#clip630)" style="stroke:#000000; stroke-linecap:butt; stroke-linejoin:round; stroke-width:4; stroke-opacity:1; fill:none" points="
  1976.69,198.898 2278.07,198.898 2278.07,95.2176 1976.69,95.2176 1976.69,198.898 
  "></polyline>
<path clip-path="url(#clip630)" d="
M2001.58 167.794 L2150.95 167.794 L2150.95 126.322 L2001.58 126.322 L2001.58 167.794  Z
  " fill="#009af9" fill-rule="evenodd" fill-opacity="1"></path>
<polyline clip-path="url(#clip630)" style="stroke:#000000; stroke-linecap:butt; stroke-linejoin:round; stroke-width:4; stroke-opacity:1; fill:none" points="
  2001.58,167.794 2150.95,167.794 2150.95,126.322 2001.58,126.322 2001.58,167.794 
  "></polyline>
<path clip-path="url(#clip630)" d="M2189.69 166.745 Q2187.89 171.375 2186.17 172.787 Q2184.46 174.199 2181.59 174.199 L2178.19 174.199 L2178.19 170.634 L2180.69 170.634 Q2182.45 170.634 2183.42 169.8 Q2184.39 168.967 2185.57 165.865 L2186.34 163.921 L2175.85 138.412 L2180.36 138.412 L2188.46 158.689 L2196.57 138.412 L2201.08 138.412 L2189.69 166.745 Z" fill="#000000" fill-rule="evenodd" fill-opacity="1"></path><path clip-path="url(#clip630)" d="M2208.37 160.402 L2216.01 160.402 L2216.01 134.037 L2207.7 135.703 L2207.7 131.444 L2215.96 129.778 L2220.64 129.778 L2220.64 160.402 L2228.28 160.402 L2228.28 164.338 L2208.37 164.338 L2208.37 160.402 Z" fill="#000000" fill-rule="evenodd" fill-opacity="1"></path></svg>