<svg xmlns="http://www.w3.org/2000/svg" xmlns:xlink="http://www.w3.org/1999/xlink" width="600" height="400" viewBox="0 0 2400 1600">
<defs>
  <clipPath id="clip510">
    <rect x="0" y="0" width="2400" height="1600"></rect>
  </clipPath>
</defs>
<path clip-path="url(#clip510)" d="
M0 1600 L2400 1600 L2400 0 L0 0  Z
  " fill="#ffffff" fill-rule="evenodd" fill-opacity="1"></path>
<defs>
  <clipPath id="clip511">
    <rect x="480" y="0" width="1681" height="1600"></rect>
  </clipPath>
</defs>
<path clip-path="url(#clip510)" d="
M138.959 1486.45 L2352.76 1486.45 L2352.76 47.2441 L138.959 47.2441  Z
  " fill="#ffffff" fill-rule="evenodd" fill-opacity="1"></path>
<defs>
  <clipPath id="clip512">
    <rect x="138" y="47" width="2215" height="1440"></rect>
  </clipPath>
</defs>
<polyline clip-path="url(#clip512)" style="stroke:#000000; stroke-linecap:butt; stroke-linejoin:round; stroke-width:2; stroke-opacity:0.1; fill:none" points="
  260.722,1486.45 260.722,47.2441 
  "></polyline>
<polyline clip-path="url(#clip512)" style="stroke:#000000; stroke-linecap:butt; stroke-linejoin:round; stroke-width:2; stroke-opacity:0.1; fill:none" points="
  753.29,1486.45 753.29,47.2441 
  "></polyline>
<polyline clip-path="url(#clip512)" style="stroke:#000000; stroke-linecap:butt; stroke-linejoin:round; stroke-width:2; stroke-opacity:0.1; fill:none" points="
  1245.86,1486.45 1245.86,47.2441 
  "></polyline>
<polyline clip-path="url(#clip512)" style="stroke:#000000; stroke-linecap:butt; stroke-linejoin:round; stroke-width:2; stroke-opacity:0.1; fill:none" points="
  1738.43,1486.45 1738.43,47.2441 
  "></polyline>
<polyline clip-path="url(#clip512)" style="stroke:#000000; stroke-linecap:butt; stroke-linejoin:round; stroke-width:2; stroke-opacity:0.1; fill:none" points="
  2230.99,1486.45 2230.99,47.2441 
  "></polyline>
<polyline clip-path="url(#clip510)" style="stroke:#000000; stroke-linecap:butt; stroke-linejoin:round; stroke-width:4; stroke-opacity:1; fill:none" points="
  138.959,1486.45 2352.76,1486.45 
  "></polyline>
<polyline clip-path="url(#clip510)" style="stroke:#000000; stroke-linecap:butt; stroke-linejoin:round; stroke-width:4; stroke-opacity:1; fill:none" points="
  260.722,1486.45 260.722,1467.55 
  "></polyline>
<polyline clip-path="url(#clip510)" style="stroke:#000000; stroke-linecap:butt; stroke-linejoin:round; stroke-width:4; stroke-opacity:1; fill:none" points="
  753.29,1486.45 753.29,1467.55 
  "></polyline>
<polyline clip-path="url(#clip510)" style="stroke:#000000; stroke-linecap:butt; stroke-linejoin:round; stroke-width:4; stroke-opacity:1; fill:none" points="
  1245.86,1486.45 1245.86,1467.55 
  "></polyline>
<polyline clip-path="url(#clip510)" style="stroke:#000000; stroke-linecap:butt; stroke-linejoin:round; stroke-width:4; stroke-opacity:1; fill:none" points="
  1738.43,1486.45 1738.43,1467.55 
  "></polyline>
<polyline clip-path="url(#clip510)" style="stroke:#000000; stroke-linecap:butt; stroke-linejoin:round; stroke-width:4; stroke-opacity:1; fill:none" points="
  2230.99,1486.45 2230.99,1467.55 
  "></polyline>
<path clip-path="url(#clip510)" d="M260.722 1517.37 Q257.111 1517.37 255.282 1520.93 Q253.477 1524.47 253.477 1531.6 Q253.477 1538.71 255.282 1542.27 Q257.111 1545.82 260.722 1545.82 Q264.356 1545.82 266.162 1542.27 Q267.991 1538.71 267.991 1531.6 Q267.991 1524.47 266.162 1520.93 Q264.356 1517.37 260.722 1517.37 M260.722 1513.66 Q266.532 1513.66 269.588 1518.27 Q272.667 1522.85 272.667 1531.6 Q272.667 1540.33 269.588 1544.94 Q266.532 1549.52 260.722 1549.52 Q254.912 1549.52 251.833 1544.94 Q248.778 1540.33 248.778 1531.6 Q248.778 1522.85 251.833 1518.27 Q254.912 1513.66 260.722 1513.66 Z" fill="#000000" fill-rule="evenodd" fill-opacity="1"></path><path clip-path="url(#clip510)" d="M743.568 1514.29 L761.924 1514.29 L761.924 1518.22 L747.85 1518.22 L747.85 1526.7 Q748.869 1526.35 749.887 1526.19 Q750.906 1526 751.924 1526 Q757.711 1526 761.091 1529.17 Q764.47 1532.34 764.47 1537.76 Q764.47 1543.34 760.998 1546.44 Q757.526 1549.52 751.207 1549.52 Q749.031 1549.52 746.762 1549.15 Q744.517 1548.78 742.109 1548.04 L742.109 1543.34 Q744.193 1544.47 746.415 1545.03 Q748.637 1545.58 751.114 1545.58 Q755.119 1545.58 757.457 1543.48 Q759.795 1541.37 759.795 1537.76 Q759.795 1534.15 757.457 1532.04 Q755.119 1529.94 751.114 1529.94 Q749.239 1529.94 747.364 1530.35 Q745.512 1530.77 743.568 1531.65 L743.568 1514.29 Z" fill="#000000" fill-rule="evenodd" fill-opacity="1"></path><path clip-path="url(#clip510)" d="M1220.55 1544.91 L1228.18 1544.91 L1228.18 1518.55 L1219.87 1520.21 L1219.87 1515.95 L1228.14 1514.29 L1232.81 1514.29 L1232.81 1544.91 L1240.45 1544.91 L1240.45 1548.85 L1220.55 1548.85 L1220.55 1544.91 Z" fill="#000000" fill-rule="evenodd" fill-opacity="1"></path><path clip-path="url(#clip510)" d="M1259.9 1517.37 Q1256.29 1517.37 1254.46 1520.93 Q1252.65 1524.47 1252.65 1531.6 Q1252.65 1538.71 1254.46 1542.27 Q1256.29 1545.82 1259.9 1545.82 Q1263.53 1545.82 1265.34 1542.27 Q1267.17 1538.71 1267.17 1531.6 Q1267.17 1524.47 1265.34 1520.93 Q1263.53 1517.37 1259.9 1517.37 M1259.9 1513.66 Q1265.71 1513.66 1268.76 1518.27 Q1271.84 1522.85 1271.84 1531.6 Q1271.84 1540.33 1268.76 1544.94 Q1265.71 1549.52 1259.9 1549.52 Q1254.09 1549.52 1251.01 1544.94 Q1247.95 1540.33 1247.95 1531.6 Q1247.95 1522.85 1251.01 1518.27 Q1254.09 1513.66 1259.9 1513.66 Z" fill="#000000" fill-rule="evenodd" fill-opacity="1"></path><path clip-path="url(#clip510)" d="M1713.61 1544.91 L1721.25 1544.91 L1721.25 1518.55 L1712.94 1520.21 L1712.94 1515.95 L1721.2 1514.29 L1725.88 1514.29 L1725.88 1544.91 L1733.52 1544.91 L1733.52 1548.85 L1713.61 1548.85 L1713.61 1544.91 Z" fill="#000000" fill-rule="evenodd" fill-opacity="1"></path><path clip-path="url(#clip510)" d="M1743.01 1514.29 L1761.37 1514.29 L1761.37 1518.22 L1747.29 1518.22 L1747.29 1526.7 Q1748.31 1526.35 1749.33 1526.19 Q1750.35 1526 1751.37 1526 Q1757.15 1526 1760.53 1529.17 Q1763.91 1532.34 1763.91 1537.76 Q1763.91 1543.34 1760.44 1546.44 Q1756.97 1549.52 1750.65 1549.52 Q1748.47 1549.52 1746.2 1549.15 Q1743.96 1548.78 1741.55 1548.04 L1741.55 1543.34 Q1743.63 1544.47 1745.86 1545.03 Q1748.08 1545.58 1750.55 1545.58 Q1754.56 1545.58 1756.9 1543.48 Q1759.24 1541.37 1759.24 1537.76 Q1759.24 1534.15 1756.9 1532.04 Q1754.56 1529.94 1750.55 1529.94 Q1748.68 1529.94 1746.81 1530.35 Q1744.95 1530.77 1743.01 1531.65 L1743.01 1514.29 Z" fill="#000000" fill-rule="evenodd" fill-opacity="1"></path><path clip-path="url(#clip510)" d="M2209.77 1544.91 L2226.09 1544.91 L2226.09 1548.85 L2204.14 1548.85 L2204.14 1544.91 Q2206.8 1542.16 2211.39 1537.53 Q2215.99 1532.88 2217.17 1531.53 Q2219.42 1529.01 2220.3 1527.27 Q2221.2 1525.51 2221.2 1523.82 Q2221.2 1521.07 2219.26 1519.33 Q2217.34 1517.6 2214.23 1517.6 Q2212.03 1517.6 2209.58 1518.36 Q2207.15 1519.13 2204.37 1520.68 L2204.37 1515.95 Q2207.2 1514.82 2209.65 1514.24 Q2212.1 1513.66 2214.14 1513.66 Q2219.51 1513.66 2222.71 1516.35 Q2225.9 1519.03 2225.9 1523.52 Q2225.9 1525.65 2225.09 1527.57 Q2224.3 1529.47 2222.2 1532.07 Q2221.62 1532.74 2218.52 1535.95 Q2215.41 1539.15 2209.77 1544.91 Z" fill="#000000" fill-rule="evenodd" fill-opacity="1"></path><path clip-path="url(#clip510)" d="M2245.9 1517.37 Q2242.29 1517.37 2240.46 1520.93 Q2238.66 1524.47 2238.66 1531.6 Q2238.66 1538.71 2240.46 1542.27 Q2242.29 1545.82 2245.9 1545.82 Q2249.53 1545.82 2251.34 1542.27 Q2253.17 1538.71 2253.17 1531.6 Q2253.17 1524.47 2251.34 1520.93 Q2249.53 1517.37 2245.9 1517.37 M2245.9 1513.66 Q2251.71 1513.66 2254.77 1518.27 Q2257.84 1522.85 2257.84 1531.6 Q2257.84 1540.33 2254.77 1544.94 Q2251.71 1549.52 2245.9 1549.52 Q2240.09 1549.52 2237.01 1544.94 Q2233.96 1540.33 2233.96 1531.6 Q2233.96 1522.85 2237.01 1518.27 Q2240.09 1513.66 2245.9 1513.66 Z" fill="#000000" fill-rule="evenodd" fill-opacity="1"></path><polyline clip-path="url(#clip512)" style="stroke:#000000; stroke-linecap:butt; stroke-linejoin:round; stroke-width:2; stroke-opacity:0.1; fill:none" points="
  138.959,1445.72 2352.76,1445.72 
  "></polyline>
<polyline clip-path="url(#clip512)" style="stroke:#000000; stroke-linecap:butt; stroke-linejoin:round; stroke-width:2; stroke-opacity:0.1; fill:none" points="
  138.959,1046.38 2352.76,1046.38 
  "></polyline>
<polyline clip-path="url(#clip512)" style="stroke:#000000; stroke-linecap:butt; stroke-linejoin:round; stroke-width:2; stroke-opacity:0.1; fill:none" points="
  138.959,647.045 2352.76,647.045 
  "></polyline>
<polyline clip-path="url(#clip512)" style="stroke:#000000; stroke-linecap:butt; stroke-linejoin:round; stroke-width:2; stroke-opacity:0.1; fill:none" points="
  138.959,247.71 2352.76,247.71 
  "></polyline>
<polyline clip-path="url(#clip510)" style="stroke:#000000; stroke-linecap:butt; stroke-linejoin:round; stroke-width:4; stroke-opacity:1; fill:none" points="
  138.959,1486.45 138.959,47.2441 
  "></polyline>
<polyline clip-path="url(#clip510)" style="stroke:#000000; stroke-linecap:butt; stroke-linejoin:round; stroke-width:4; stroke-opacity:1; fill:none" points="
  138.959,1445.72 157.857,1445.72 
  "></polyline>
<polyline clip-path="url(#clip510)" style="stroke:#000000; stroke-linecap:butt; stroke-linejoin:round; stroke-width:4; stroke-opacity:1; fill:none" points="
  138.959,1046.38 157.857,1046.38 
  "></polyline>
<polyline clip-path="url(#clip510)" style="stroke:#000000; stroke-linecap:butt; stroke-linejoin:round; stroke-width:4; stroke-opacity:1; fill:none" points="
  138.959,647.045 157.857,647.045 
  "></polyline>
<polyline clip-path="url(#clip510)" style="stroke:#000000; stroke-linecap:butt; stroke-linejoin:round; stroke-width:4; stroke-opacity:1; fill:none" points="
  138.959,247.71 157.857,247.71 
  "></polyline>
<path clip-path="url(#clip510)" d="M91.0151 1431.51 Q87.404 1431.51 85.5753 1435.08 Q83.7697 1438.62 83.7697 1445.75 Q83.7697 1452.86 85.5753 1456.42 Q87.404 1459.96 91.0151 1459.96 Q94.6493 1459.96 96.4548 1456.42 Q98.2835 1452.86 98.2835 1445.75 Q98.2835 1438.62 96.4548 1435.08 Q94.6493 1431.51 91.0151 1431.51 M91.0151 1427.81 Q96.8252 1427.81 99.8808 1432.42 Q102.959 1437 102.959 1445.75 Q102.959 1454.48 99.8808 1459.08 Q96.8252 1463.67 91.0151 1463.67 Q85.2049 1463.67 82.1262 1459.08 Q79.0707 1454.48 79.0707 1445.75 Q79.0707 1437 82.1262 1432.42 Q85.2049 1427.81 91.0151 1427.81 Z" fill="#000000" fill-rule="evenodd" fill-opacity="1"></path><path clip-path="url(#clip510)" d="M82.0568 1029.1 L100.413 1029.1 L100.413 1033.04 L86.3392 1033.04 L86.3392 1041.51 Q87.3577 1041.16 88.3762 1041 Q89.3947 1040.81 90.4132 1040.81 Q96.2002 1040.81 99.5798 1043.98 Q102.959 1047.16 102.959 1052.57 Q102.959 1058.15 99.4872 1061.25 Q96.015 1064.33 89.6956 1064.33 Q87.5197 1064.33 85.2512 1063.96 Q83.0058 1063.59 80.5984 1062.85 L80.5984 1058.15 Q82.6818 1059.29 84.904 1059.84 Q87.1262 1060.4 89.603 1060.4 Q93.6076 1060.4 95.9456 1058.29 Q98.2835 1056.18 98.2835 1052.57 Q98.2835 1048.96 95.9456 1046.86 Q93.6076 1044.75 89.603 1044.75 Q87.728 1044.75 85.8531 1045.17 Q84.0012 1045.58 82.0568 1046.46 L82.0568 1029.1 Z" fill="#000000" fill-rule="evenodd" fill-opacity="1"></path><path clip-path="url(#clip510)" d="M51.6634 660.39 L59.3023 660.39 L59.3023 634.025 L50.9921 635.691 L50.9921 631.432 L59.256 629.765 L63.9319 629.765 L63.9319 660.39 L71.5707 660.39 L71.5707 664.325 L51.6634 664.325 L51.6634 660.39 Z" fill="#000000" fill-rule="evenodd" fill-opacity="1"></path><path clip-path="url(#clip510)" d="M91.0151 632.844 Q87.404 632.844 85.5753 636.409 Q83.7697 639.951 83.7697 647.08 Q83.7697 654.187 85.5753 657.751 Q87.404 661.293 91.0151 661.293 Q94.6493 661.293 96.4548 657.751 Q98.2835 654.187 98.2835 647.08 Q98.2835 639.951 96.4548 636.409 Q94.6493 632.844 91.0151 632.844 M91.0151 629.14 Q96.8252 629.14 99.8808 633.747 Q102.959 638.33 102.959 647.08 Q102.959 655.807 99.8808 660.413 Q96.8252 664.997 91.0151 664.997 Q85.2049 664.997 82.1262 660.413 Q79.0707 655.807 79.0707 647.08 Q79.0707 638.33 82.1262 633.747 Q85.2049 629.14 91.0151 629.14 Z" fill="#000000" fill-rule="evenodd" fill-opacity="1"></path><path clip-path="url(#clip510)" d="M52.6588 261.055 L60.2976 261.055 L60.2976 234.69 L51.9875 236.356 L51.9875 232.097 L60.2513 230.43 L64.9272 230.43 L64.9272 261.055 L72.5661 261.055 L72.5661 264.99 L52.6588 264.99 L52.6588 261.055 Z" fill="#000000" fill-rule="evenodd" fill-opacity="1"></path><path clip-path="url(#clip510)" d="M82.0568 230.43 L100.413 230.43 L100.413 234.365 L86.3392 234.365 L86.3392 242.838 Q87.3577 242.49 88.3762 242.328 Q89.3947 242.143 90.4132 242.143 Q96.2002 242.143 99.5798 245.315 Q102.959 248.486 102.959 253.902 Q102.959 259.481 99.4872 262.583 Q96.015 265.662 89.6956 265.662 Q87.5197 265.662 85.2512 265.291 Q83.0058 264.921 80.5984 264.18 L80.5984 259.481 Q82.6818 260.615 84.904 261.171 Q87.1262 261.726 89.603 261.726 Q93.6076 261.726 95.9456 259.62 Q98.2835 257.514 98.2835 253.902 Q98.2835 250.291 95.9456 248.185 Q93.6076 246.078 89.603 246.078 Q87.728 246.078 85.8531 246.495 Q84.0012 246.912 82.0568 247.791 L82.0568 230.43 Z" fill="#000000" fill-rule="evenodd" fill-opacity="1"></path><path clip-path="url(#clip512)" d="
M260.722 1445.72 L260.722 1445.72 L309.979 1445.72 L309.979 1445.72 L260.722 1445.72 L260.722 1445.72  Z
  " fill="#009af9" fill-rule="evenodd" fill-opacity="1"></path>
<polyline clip-path="url(#clip512)" style="stroke:#000000; stroke-linecap:butt; stroke-linejoin:round; stroke-width:4; stroke-opacity:1; fill:none" points="
  260.722,1445.72 260.722,1445.72 309.979,1445.72 260.722,1445.72 
  "></polyline>
<path clip-path="url(#clip512)" d="
M309.979 1445.72 L309.979 1445.72 L359.236 1445.72 L359.236 1445.72 L309.979 1445.72 L309.979 1445.72  Z
  " fill="#009af9" fill-rule="evenodd" fill-opacity="1"></path>
<polyline clip-path="url(#clip512)" style="stroke:#000000; stroke-linecap:butt; stroke-linejoin:round; stroke-width:4; stroke-opacity:1; fill:none" points="
  309.979,1445.72 309.979,1445.72 359.236,1445.72 309.979,1445.72 
  "></polyline>
<path clip-path="url(#clip512)" d="
M359.236 1445.72 L359.236 1445.72 L408.493 1445.72 L408.493 1445.72 L359.236 1445.72 L359.236 1445.72  Z
  " fill="#009af9" fill-rule="evenodd" fill-opacity="1"></path>
<polyline clip-path="url(#clip512)" style="stroke:#000000; stroke-linecap:butt; stroke-linejoin:round; stroke-width:4; stroke-opacity:1; fill:none" points="
  359.236,1445.72 359.236,1445.72 408.493,1445.72 359.236,1445.72 
  "></polyline>
<path clip-path="url(#clip512)" d="
M408.493 1365.85 L408.493 1445.72 L457.749 1445.72 L457.749 1365.85 L408.493 1365.85 L408.493 1365.85  Z
  " fill="#009af9" fill-rule="evenodd" fill-opacity="1"></path>
<polyline clip-path="url(#clip512)" style="stroke:#000000; stroke-linecap:butt; stroke-linejoin:round; stroke-width:4; stroke-opacity:1; fill:none" points="
  408.493,1365.85 408.493,1445.72 457.749,1445.72 457.749,1365.85 408.493,1365.85 
  "></polyline>
<path clip-path="url(#clip512)" d="
M457.749 1445.72 L457.749 1445.72 L507.006 1445.72 L507.006 1445.72 L457.749 1445.72 L457.749 1445.72  Z
  " fill="#009af9" fill-rule="evenodd" fill-opacity="1"></path>
<polyline clip-path="url(#clip512)" style="stroke:#000000; stroke-linecap:butt; stroke-linejoin:round; stroke-width:4; stroke-opacity:1; fill:none" points="
  457.749,1445.72 457.749,1445.72 507.006,1445.72 457.749,1445.72 
  "></polyline>
<path clip-path="url(#clip512)" d="
M507.006 1445.72 L507.006 1445.72 L556.263 1445.72 L556.263 1445.72 L507.006 1445.72 L507.006 1445.72  Z
  " fill="#009af9" fill-rule="evenodd" fill-opacity="1"></path>
<polyline clip-path="url(#clip512)" style="stroke:#000000; stroke-linecap:butt; stroke-linejoin:round; stroke-width:4; stroke-opacity:1; fill:none" points="
  507.006,1445.72 507.006,1445.72 556.263,1445.72 507.006,1445.72 
  "></polyline>
<path clip-path="url(#clip512)" d="
M556.263 1365.85 L556.263 1445.72 L605.52 1445.72 L605.52 1365.85 L556.263 1365.85 L556.263 1365.85  Z
  " fill="#009af9" fill-rule="evenodd" fill-opacity="1"></path>
<polyline clip-path="url(#clip512)" style="stroke:#000000; stroke-linecap:butt; stroke-linejoin:round; stroke-width:4; stroke-opacity:1; fill:none" points="
  556.263,1365.85 556.263,1445.72 605.52,1445.72 605.52,1365.85 556.263,1365.85 
  "></polyline>
<path clip-path="url(#clip512)" d="
M605.52 1206.11 L605.52 1445.72 L654.776 1445.72 L654.776 1206.11 L605.52 1206.11 L605.52 1206.11  Z
  " fill="#009af9" fill-rule="evenodd" fill-opacity="1"></path>
<polyline clip-path="url(#clip512)" style="stroke:#000000; stroke-linecap:butt; stroke-linejoin:round; stroke-width:4; stroke-opacity:1; fill:none" points="
  605.52,1206.11 605.52,1445.72 654.776,1445.72 654.776,1206.11 605.52,1206.11 
  "></polyline>
<path clip-path="url(#clip512)" d="
M654.776 966.514 L654.776 1445.72 L704.033 1445.72 L704.033 966.514 L654.776 966.514 L654.776 966.514  Z
  " fill="#009af9" fill-rule="evenodd" fill-opacity="1"></path>
<polyline clip-path="url(#clip512)" style="stroke:#000000; stroke-linecap:butt; stroke-linejoin:round; stroke-width:4; stroke-opacity:1; fill:none" points="
  654.776,966.514 654.776,1445.72 704.033,1445.72 704.033,966.514 654.776,966.514 
  "></polyline>
<path clip-path="url(#clip512)" d="
M704.033 966.514 L704.033 1445.72 L753.29 1445.72 L753.29 966.514 L704.033 966.514 L704.033 966.514  Z
  " fill="#009af9" fill-rule="evenodd" fill-opacity="1"></path>
<polyline clip-path="url(#clip512)" style="stroke:#000000; stroke-linecap:butt; stroke-linejoin:round; stroke-width:4; stroke-opacity:1; fill:none" points="
  704.033,966.514 704.033,1445.72 753.29,1445.72 753.29,966.514 704.033,966.514 
  "></polyline>
<path clip-path="url(#clip512)" d="
M753.29 1126.25 L753.29 1445.72 L802.547 1445.72 L802.547 1126.25 L753.29 1126.25 L753.29 1126.25  Z
  " fill="#009af9" fill-rule="evenodd" fill-opacity="1"></path>
<polyline clip-path="url(#clip512)" style="stroke:#000000; stroke-linecap:butt; stroke-linejoin:round; stroke-width:4; stroke-opacity:1; fill:none" points="
  753.29,1126.25 753.29,1445.72 802.547,1445.72 802.547,1126.25 753.29,1126.25 
  "></polyline>
<path clip-path="url(#clip512)" d="
M802.547 1126.25 L802.547 1445.72 L851.803 1445.72 L851.803 1126.25 L802.547 1126.25 L802.547 1126.25  Z
  " fill="#009af9" fill-rule="evenodd" fill-opacity="1"></path>
<polyline clip-path="url(#clip512)" style="stroke:#000000; stroke-linecap:butt; stroke-linejoin:round; stroke-width:4; stroke-opacity:1; fill:none" points="
  802.547,1126.25 802.547,1445.72 851.803,1445.72 851.803,1126.25 802.547,1126.25 
  "></polyline>
<path clip-path="url(#clip512)" d="
M851.803 1206.11 L851.803 1445.72 L901.06 1445.72 L901.06 1206.11 L851.803 1206.11 L851.803 1206.11  Z
  " fill="#009af9" fill-rule="evenodd" fill-opacity="1"></path>
<polyline clip-path="url(#clip512)" style="stroke:#000000; stroke-linecap:butt; stroke-linejoin:round; stroke-width:4; stroke-opacity:1; fill:none" points="
  851.803,1206.11 851.803,1445.72 901.06,1445.72 901.06,1206.11 851.803,1206.11 
  "></polyline>
<path clip-path="url(#clip512)" d="
M901.06 1285.98 L901.06 1445.72 L950.317 1445.72 L950.317 1285.98 L901.06 1285.98 L901.06 1285.98  Z
  " fill="#009af9" fill-rule="evenodd" fill-opacity="1"></path>
<polyline clip-path="url(#clip512)" style="stroke:#000000; stroke-linecap:butt; stroke-linejoin:round; stroke-width:4; stroke-opacity:1; fill:none" points="
  901.06,1285.98 901.06,1445.72 950.317,1445.72 950.317,1285.98 901.06,1285.98 
  "></polyline>
<path clip-path="url(#clip512)" d="
M950.317 1365.85 L950.317 1445.72 L999.574 1445.72 L999.574 1365.85 L950.317 1365.85 L950.317 1365.85  Z
  " fill="#009af9" fill-rule="evenodd" fill-opacity="1"></path>
<polyline clip-path="url(#clip512)" style="stroke:#000000; stroke-linecap:butt; stroke-linejoin:round; stroke-width:4; stroke-opacity:1; fill:none" points="
  950.317,1365.85 950.317,1445.72 999.574,1445.72 999.574,1365.85 950.317,1365.85 
  "></polyline>
<path clip-path="url(#clip512)" d="
M999.574 1445.72 L999.574 1445.72 L1048.83 1445.72 L1048.83 1445.72 L999.574 1445.72 L999.574 1445.72  Z
  " fill="#009af9" fill-rule="evenodd" fill-opacity="1"></path>
<polyline clip-path="url(#clip512)" style="stroke:#000000; stroke-linecap:butt; stroke-linejoin:round; stroke-width:4; stroke-opacity:1; fill:none" points="
  999.574,1445.72 999.574,1445.72 1048.83,1445.72 999.574,1445.72 
  "></polyline>
<path clip-path="url(#clip512)" d="
M1048.83 1365.85 L1048.83 1445.72 L1098.09 1445.72 L1098.09 1365.85 L1048.83 1365.85 L1048.83 1365.85  Z
  " fill="#009af9" fill-rule="evenodd" fill-opacity="1"></path>
<polyline clip-path="url(#clip512)" style="stroke:#000000; stroke-linecap:butt; stroke-linejoin:round; stroke-width:4; stroke-opacity:1; fill:none" points="
  1048.83,1365.85 1048.83,1445.72 1098.09,1445.72 1098.09,1365.85 1048.83,1365.85 
  "></polyline>
<path clip-path="url(#clip512)" d="
M1098.09 1445.72 L1098.09 1445.72 L1147.34 1445.72 L1147.34 1445.72 L1098.09 1445.72 L1098.09 1445.72  Z
  " fill="#009af9" fill-rule="evenodd" fill-opacity="1"></path>
<polyline clip-path="url(#clip512)" style="stroke:#000000; stroke-linecap:butt; stroke-linejoin:round; stroke-width:4; stroke-opacity:1; fill:none" points="
  1098.09,1445.72 1098.09,1445.72 1147.34,1445.72 1098.09,1445.72 
  "></polyline>
<path clip-path="url(#clip512)" d="
M1147.34 1445.72 L1147.34 1445.72 L1196.6 1445.72 L1196.6 1445.72 L1147.34 1445.72 L1147.34 1445.72  Z
  " fill="#009af9" fill-rule="evenodd" fill-opacity="1"></path>
<polyline clip-path="url(#clip512)" style="stroke:#000000; stroke-linecap:butt; stroke-linejoin:round; stroke-width:4; stroke-opacity:1; fill:none" points="
  1147.34,1445.72 1147.34,1445.72 1196.6,1445.72 1147.34,1445.72 
  "></polyline>
<path clip-path="url(#clip512)" d="
M1196.6 1365.85 L1196.6 1445.72 L1245.86 1445.72 L1245.86 1365.85 L1196.6 1365.85 L1196.6 1365.85  Z
  " fill="#009af9" fill-rule="evenodd" fill-opacity="1"></path>
<polyline clip-path="url(#clip512)" style="stroke:#000000; stroke-linecap:butt; stroke-linejoin:round; stroke-width:4; stroke-opacity:1; fill:none" points="
  1196.6,1365.85 1196.6,1445.72 1245.86,1445.72 1245.86,1365.85 1196.6,1365.85 
  "></polyline>
<path clip-path="url(#clip512)" d="
M1245.86 1445.72 L1245.86 1445.72 L1295.11 1445.72 L1295.11 1445.72 L1245.86 1445.72 L1245.86 1445.72  Z
  " fill="#009af9" fill-rule="evenodd" fill-opacity="1"></path>
<polyline clip-path="url(#clip512)" style="stroke:#000000; stroke-linecap:butt; stroke-linejoin:round; stroke-width:4; stroke-opacity:1; fill:none" points="
  1245.86,1445.72 1245.86,1445.72 1295.11,1445.72 1245.86,1445.72 
  "></polyline>
<path clip-path="url(#clip512)" d="
M1295.11 1445.72 L1295.11 1445.72 L1344.37 1445.72 L1344.37 1445.72 L1295.11 1445.72 L1295.11 1445.72  Z
  " fill="#009af9" fill-rule="evenodd" fill-opacity="1"></path>
<polyline clip-path="url(#clip512)" style="stroke:#000000; stroke-linecap:butt; stroke-linejoin:round; stroke-width:4; stroke-opacity:1; fill:none" points="
  1295.11,1445.72 1295.11,1445.72 1344.37,1445.72 1295.11,1445.72 
  "></polyline>
<path clip-path="url(#clip512)" d="
M1344.37 1445.72 L1344.37 1445.72 L1393.63 1445.72 L1393.63 1445.72 L1344.37 1445.72 L1344.37 1445.72  Z
  " fill="#009af9" fill-rule="evenodd" fill-opacity="1"></path>
<polyline clip-path="url(#clip512)" style="stroke:#000000; stroke-linecap:butt; stroke-linejoin:round; stroke-width:4; stroke-opacity:1; fill:none" points="
  1344.37,1445.72 1344.37,1445.72 1393.63,1445.72 1344.37,1445.72 
  "></polyline>
<path clip-path="url(#clip512)" d="
M1393.63 1365.85 L1393.63 1445.72 L1442.88 1445.72 L1442.88 1365.85 L1393.63 1365.85 L1393.63 1365.85  Z
  " fill="#009af9" fill-rule="evenodd" fill-opacity="1"></path>
<polyline clip-path="url(#clip512)" style="stroke:#000000; stroke-linecap:butt; stroke-linejoin:round; stroke-width:4; stroke-opacity:1; fill:none" points="
  1393.63,1365.85 1393.63,1445.72 1442.88,1445.72 1442.88,1365.85 1393.63,1365.85 
  "></polyline>
<path clip-path="url(#clip512)" d="
M1442.88 1445.72 L1442.88 1445.72 L1492.14 1445.72 L1492.14 1445.72 L1442.88 1445.72 L1442.88 1445.72  Z
  " fill="#009af9" fill-rule="evenodd" fill-opacity="1"></path>
<polyline clip-path="url(#clip512)" style="stroke:#000000; stroke-linecap:butt; stroke-linejoin:round; stroke-width:4; stroke-opacity:1; fill:none" points="
  1442.88,1445.72 1442.88,1445.72 1492.14,1445.72 1442.88,1445.72 
  "></polyline>
<path clip-path="url(#clip512)" d="
M1492.14 1365.85 L1492.14 1445.72 L1541.4 1445.72 L1541.4 1365.85 L1492.14 1365.85 L1492.14 1365.85  Z
  " fill="#009af9" fill-rule="evenodd" fill-opacity="1"></path>
<polyline clip-path="url(#clip512)" style="stroke:#000000; stroke-linecap:butt; stroke-linejoin:round; stroke-width:4; stroke-opacity:1; fill:none" points="
  1492.14,1365.85 1492.14,1445.72 1541.4,1445.72 1541.4,1365.85 1492.14,1365.85 
  "></polyline>
<path clip-path="url(#clip512)" d="
M1541.4 1365.85 L1541.4 1445.72 L1590.66 1445.72 L1590.66 1365.85 L1541.4 1365.85 L1541.4 1365.85  Z
  " fill="#009af9" fill-rule="evenodd" fill-opacity="1"></path>
<polyline clip-path="url(#clip512)" style="stroke:#000000; stroke-linecap:butt; stroke-linejoin:round; stroke-width:4; stroke-opacity:1; fill:none" points="
  1541.4,1365.85 1541.4,1445.72 1590.66,1445.72 1590.66,1365.85 1541.4,1365.85 
  "></polyline>
<path clip-path="url(#clip512)" d="
M1590.66 886.647 L1590.66 1445.72 L1639.91 1445.72 L1639.91 886.647 L1590.66 886.647 L1590.66 886.647  Z
  " fill="#009af9" fill-rule="evenodd" fill-opacity="1"></path>
<polyline clip-path="url(#clip512)" style="stroke:#000000; stroke-linecap:butt; stroke-linejoin:round; stroke-width:4; stroke-opacity:1; fill:none" points="
  1590.66,886.647 1590.66,1445.72 1639.91,1445.72 1639.91,886.647 1590.66,886.647 
  "></polyline>
<path clip-path="url(#clip512)" d="
M1639.91 806.779 L1639.91 1445.72 L1689.17 1445.72 L1689.17 806.779 L1639.91 806.779 L1639.91 806.779  Z
  " fill="#009af9" fill-rule="evenodd" fill-opacity="1"></path>
<polyline clip-path="url(#clip512)" style="stroke:#000000; stroke-linecap:butt; stroke-linejoin:round; stroke-width:4; stroke-opacity:1; fill:none" points="
  1639.91,806.779 1639.91,1445.72 1689.17,1445.72 1689.17,806.779 1639.91,806.779 
  "></polyline>
<path clip-path="url(#clip512)" d="
M1689.17 327.577 L1689.17 1445.72 L1738.43 1445.72 L1738.43 327.577 L1689.17 327.577 L1689.17 327.577  Z
  " fill="#009af9" fill-rule="evenodd" fill-opacity="1"></path>
<polyline clip-path="url(#clip512)" style="stroke:#000000; stroke-linecap:butt; stroke-linejoin:round; stroke-width:4; stroke-opacity:1; fill:none" points="
  1689.17,327.577 1689.17,1445.72 1738.43,1445.72 1738.43,327.577 1689.17,327.577 
  "></polyline>
<path clip-path="url(#clip512)" d="
M1738.43 806.779 L1738.43 1445.72 L1787.68 1445.72 L1787.68 806.779 L1738.43 806.779 L1738.43 806.779  Z
  " fill="#009af9" fill-rule="evenodd" fill-opacity="1"></path>
<polyline clip-path="url(#clip512)" style="stroke:#000000; stroke-linecap:butt; stroke-linejoin:round; stroke-width:4; stroke-opacity:1; fill:none" points="
  1738.43,806.779 1738.43,1445.72 1787.68,1445.72 1787.68,806.779 1738.43,806.779 
  "></polyline>
<path clip-path="url(#clip512)" d="
M1787.68 87.9763 L1787.68 1445.72 L1836.94 1445.72 L1836.94 87.9763 L1787.68 87.9763 L1787.68 87.9763  Z
  " fill="#009af9" fill-rule="evenodd" fill-opacity="1"></path>
<polyline clip-path="url(#clip512)" style="stroke:#000000; stroke-linecap:butt; stroke-linejoin:round; stroke-width:4; stroke-opacity:1; fill:none" points="
  1787.68,87.9763 1787.68,1445.72 1836.94,1445.72 1836.94,87.9763 1787.68,87.9763 
  "></polyline>
<path clip-path="url(#clip512)" d="
M1836.94 886.647 L1836.94 1445.72 L1886.2 1445.72 L1886.2 886.647 L1836.94 886.647 L1836.94 886.647  Z
  " fill="#009af9" fill-rule="evenodd" fill-opacity="1"></path>
<polyline clip-path="url(#clip512)" style="stroke:#000000; stroke-linecap:butt; stroke-linejoin:round; stroke-width:4; stroke-opacity:1; fill:none" points="
  1836.94,886.647 1836.94,1445.72 1886.2,1445.72 1886.2,886.647 1836.94,886.647 
  "></polyline>
<path clip-path="url(#clip512)" d="
M1886.2 1285.98 L1886.2 1445.72 L1935.45 1445.72 L1935.45 1285.98 L1886.2 1285.98 L1886.2 1285.98  Z
  " fill="#009af9" fill-rule="evenodd" fill-opacity="1"></path>
<polyline clip-path="url(#clip512)" style="stroke:#000000; stroke-linecap:butt; stroke-linejoin:round; stroke-width:4; stroke-opacity:1; fill:none" points="
  1886.2,1285.98 1886.2,1445.72 1935.45,1445.72 1935.45,1285.98 1886.2,1285.98 
  "></polyline>
<path clip-path="url(#clip512)" d="
M1935.45 1365.85 L1935.45 1445.72 L1984.71 1445.72 L1984.71 1365.85 L1935.45 1365.85 L1935.45 1365.85  Z
  " fill="#009af9" fill-rule="evenodd" fill-opacity="1"></path>
<polyline clip-path="url(#clip512)" style="stroke:#000000; stroke-linecap:butt; stroke-linejoin:round; stroke-width:4; stroke-opacity:1; fill:none" points="
  1935.45,1365.85 1935.45,1445.72 1984.71,1445.72 1984.71,1365.85 1935.45,1365.85 
  "></polyline>
<path clip-path="url(#clip512)" d="
M1984.71 1445.72 L1984.71 1445.72 L2033.97 1445.72 L2033.97 1445.72 L1984.71 1445.72 L1984.71 1445.72  Z
  " fill="#009af9" fill-rule="evenodd" fill-opacity="1"></path>
<polyline clip-path="url(#clip512)" style="stroke:#000000; stroke-linecap:butt; stroke-linejoin:round; stroke-width:4; stroke-opacity:1; fill:none" points="
  1984.71,1445.72 1984.71,1445.72 2033.97,1445.72 1984.71,1445.72 
  "></polyline>
<path clip-path="url(#clip512)" d="
M2033.97 1445.72 L2033.97 1445.72 L2083.22 1445.72 L2083.22 1445.72 L2033.97 1445.72 L2033.97 1445.72  Z
  " fill="#009af9" fill-rule="evenodd" fill-opacity="1"></path>
<polyline clip-path="url(#clip512)" style="stroke:#000000; stroke-linecap:butt; stroke-linejoin:round; stroke-width:4; stroke-opacity:1; fill:none" points="
  2033.97,1445.72 2033.97,1445.72 2083.22,1445.72 2033.97,1445.72 
  "></polyline>
<path clip-path="url(#clip512)" d="
M2083.22 1445.72 L2083.22 1445.72 L2132.48 1445.72 L2132.48 1445.72 L2083.22 1445.72 L2083.22 1445.72  Z
  " fill="#009af9" fill-rule="evenodd" fill-opacity="1"></path>
<polyline clip-path="url(#clip512)" style="stroke:#000000; stroke-linecap:butt; stroke-linejoin:round; stroke-width:4; stroke-opacity:1; fill:none" points="
  2083.22,1445.72 2083.22,1445.72 2132.48,1445.72 2083.22,1445.72 
  "></polyline>
<path clip-path="url(#clip512)" d="
M2132.48 1445.72 L2132.48 1445.72 L2181.74 1445.72 L2181.74 1445.72 L2132.48 1445.72 L2132.48 1445.72  Z
  " fill="#009af9" fill-rule="evenodd" fill-opacity="1"></path>
<polyline clip-path="url(#clip512)" style="stroke:#000000; stroke-linecap:butt; stroke-linejoin:round; stroke-width:4; stroke-opacity:1; fill:none" points="
  2132.48,1445.72 2132.48,1445.72 2181.74,1445.72 2132.48,1445.72 
  "></polyline>
<path clip-path="url(#clip512)" d="
M2181.74 1445.72 L2181.74 1445.72 L2230.99 1445.72 L2230.99 1445.72 L2181.74 1445.72 L2181.74 1445.72  Z
  " fill="#009af9" fill-rule="evenodd" fill-opacity="1"></path>
<polyline clip-path="url(#clip512)" style="stroke:#000000; stroke-linecap:butt; stroke-linejoin:round; stroke-width:4; stroke-opacity:1; fill:none" points="
  2181.74,1445.72 2181.74,1445.72 2230.99,1445.72 2181.74,1445.72 
  "></polyline>
<circle clip-path="url(#clip512)" style="fill:#009af9; stroke:none; fill-opacity:0" cx="285.351" cy="1445.72" r="2"></circle>
<circle clip-path="url(#clip512)" style="fill:#009af9; stroke:none; fill-opacity:0" cx="334.607" cy="1445.72" r="2"></circle>
<circle clip-path="url(#clip512)" style="fill:#009af9; stroke:none; fill-opacity:0" cx="383.864" cy="1445.72" r="2"></circle>
<circle clip-path="url(#clip512)" style="fill:#009af9; stroke:none; fill-opacity:0" cx="433.121" cy="1365.85" r="2"></circle>
<circle clip-path="url(#clip512)" style="fill:#009af9; stroke:none; fill-opacity:0" cx="482.378" cy="1445.72" r="2"></circle>
<circle clip-path="url(#clip512)" style="fill:#009af9; stroke:none; fill-opacity:0" cx="531.634" cy="1445.72" r="2"></circle>
<circle clip-path="url(#clip512)" style="fill:#009af9; stroke:none; fill-opacity:0" cx="580.891" cy="1365.85" r="2"></circle>
<circle clip-path="url(#clip512)" style="fill:#009af9; stroke:none; fill-opacity:0" cx="630.148" cy="1206.11" r="2"></circle>
<circle clip-path="url(#clip512)" style="fill:#009af9; stroke:none; fill-opacity:0" cx="679.405" cy="966.514" r="2"></circle>
<circle clip-path="url(#clip512)" style="fill:#009af9; stroke:none; fill-opacity:0" cx="728.662" cy="966.514" r="2"></circle>
<circle clip-path="url(#clip512)" style="fill:#009af9; stroke:none; fill-opacity:0" cx="777.918" cy="1126.25" r="2"></circle>
<circle clip-path="url(#clip512)" style="fill:#009af9; stroke:none; fill-opacity:0" cx="827.175" cy="1126.25" r="2"></circle>
<circle clip-path="url(#clip512)" style="fill:#009af9; stroke:none; fill-opacity:0" cx="876.432" cy="1206.11" r="2"></circle>
<circle clip-path="url(#clip512)" style="fill:#009af9; stroke:none; fill-opacity:0" cx="925.689" cy="1285.98" r="2"></circle>
<circle clip-path="url(#clip512)" style="fill:#009af9; stroke:none; fill-opacity:0" cx="974.945" cy="1365.85" r="2"></circle>
<circle clip-path="url(#clip512)" style="fill:#009af9; stroke:none; fill-opacity:0" cx="1024.2" cy="1445.72" r="2"></circle>
<circle clip-path="url(#clip512)" style="fill:#009af9; stroke:none; fill-opacity:0" cx="1073.46" cy="1365.85" r="2"></circle>
<circle clip-path="url(#clip512)" style="fill:#009af9; stroke:none; fill-opacity:0" cx="1122.72" cy="1445.72" r="2"></circle>
<circle clip-path="url(#clip512)" style="fill:#009af9; stroke:none; fill-opacity:0" cx="1171.97" cy="1445.72" r="2"></circle>
<circle clip-path="url(#clip512)" style="fill:#009af9; stroke:none; fill-opacity:0" cx="1221.23" cy="1365.85" r="2"></circle>
<circle clip-path="url(#clip512)" style="fill:#009af9; stroke:none; fill-opacity:0" cx="1270.49" cy="1445.72" r="2"></circle>
<circle clip-path="url(#clip512)" style="fill:#009af9; stroke:none; fill-opacity:0" cx="1319.74" cy="1445.72" r="2"></circle>
<circle clip-path="url(#clip512)" style="fill:#009af9; stroke:none; fill-opacity:0" cx="1369" cy="1445.72" r="2"></circle>
<circle clip-path="url(#clip512)" style="fill:#009af9; stroke:none; fill-opacity:0" cx="1418.26" cy="1365.85" r="2"></circle>
<circle clip-path="url(#clip512)" style="fill:#009af9; stroke:none; fill-opacity:0" cx="1467.51" cy="1445.72" r="2"></circle>
<circle clip-path="url(#clip512)" style="fill:#009af9; stroke:none; fill-opacity:0" cx="1516.77" cy="1365.85" r="2"></circle>
<circle clip-path="url(#clip512)" style="fill:#009af9; stroke:none; fill-opacity:0" cx="1566.03" cy="1365.85" r="2"></circle>
<circle clip-path="url(#clip512)" style="fill:#009af9; stroke:none; fill-opacity:0" cx="1615.28" cy="886.647" r="2"></circle>
<circle clip-path="url(#clip512)" style="fill:#009af9; stroke:none; fill-opacity:0" cx="1664.54" cy="806.779" r="2"></circle>
<circle clip-path="url(#clip512)" style="fill:#009af9; stroke:none; fill-opacity:0" cx="1713.8" cy="327.577" r="2"></circle>
<circle clip-path="url(#clip512)" style="fill:#009af9; stroke:none; fill-opacity:0" cx="1763.05" cy="806.779" r="2"></circle>
<circle clip-path="url(#clip512)" style="fill:#009af9; stroke:none; fill-opacity:0" cx="1812.31" cy="87.9763" r="2"></circle>
<circle clip-path="url(#clip512)" style="fill:#009af9; stroke:none; fill-opacity:0" cx="1861.57" cy="886.647" r="2"></circle>
<circle clip-path="url(#clip512)" style="fill:#009af9; stroke:none; fill-opacity:0" cx="1910.82" cy="1285.98" r="2"></circle>
<circle clip-path="url(#clip512)" style="fill:#009af9; stroke:none; fill-opacity:0" cx="1960.08" cy="1365.85" r="2"></circle>
<circle clip-path="url(#clip512)" style="fill:#009af9; stroke:none; fill-opacity:0" cx="2009.34" cy="1445.72" r="2"></circle>
<circle clip-path="url(#clip512)" style="fill:#009af9; stroke:none; fill-opacity:0" cx="2058.59" cy="1445.72" r="2"></circle>
<circle clip-path="url(#clip512)" style="fill:#009af9; stroke:none; fill-opacity:0" cx="2107.85" cy="1445.72" r="2"></circle>
<circle clip-path="url(#clip512)" style="fill:#009af9; stroke:none; fill-opacity:0" cx="2157.11" cy="1445.72" r="2"></circle>
<circle clip-path="url(#clip512)" style="fill:#009af9; stroke:none; fill-opacity:0" cx="2206.36" cy="1445.72" r="2"></circle>
</svg>